<svg version="1.2" xmlns="http://www.w3.org/2000/svg" viewBox="0 0 133 80" width="133" height="80">
	<title>java-svg</title>
	<defs>
		<clipPath clipPathUnits="userSpaceOnUse" id="cp1">
			<path d="m0 0h133v80h-133z" />
		</clipPath>
	</defs>
	<style>
		.s0 { fill: #6b8e23 } 
	</style>
	<g id="Clip-Path" clip-path="url(#cp1)">
		<g id="Layer">
			<path id="Layer" fill-rule="evenodd" class="s0" d="m115.3 39.6q-0.3-1.1-0.5-2.1c-0.1-0.3-0.1-0.3 0.2-0.5c0.6-0.3 1.2-0.5 1.9-0.7c2-0.6 4-0.9 6.1-0.8q0.4 0 0.7 0q0.3 0.1 0.7 0.1q0.3 0.1 0.6 0.2q0.4 0.1 0.7 0.2c1.9 0.7 3 2.1 3.4 4q0.1 0.7 0.1 1.4v14q0 0.2-0.2 0.2q-0.1 0-0.1 0q-1.2 0-2.4 0c-0.4 0-0.4 0-0.5-0.4q-0.1-0.7-0.2-1.4c-0.1-0.2-0.1-0.2-0.3-0.1q-0.7 0.6-1.4 1.1q-2.4 1.5-5.2 1.3c-1-0.1-2-0.4-2.9-0.9q-0.2-0.1-0.4-0.2q-0.2-0.2-0.4-0.4q-0.2-0.2-0.4-0.4q-0.2-0.2-0.3-0.5q-1.3-2.4-0.6-5c0.3-1.2 1.1-2.2 2.1-2.9c1.3-0.9 2.6-1.4 4.1-1.7c1.3-0.2 2.6-0.3 3.9-0.3q0.5 0 1-0.1q0.2 0 0.2-0.2c0.1-1 0-2.1-0.3-3.1c-0.4-1.1-1.2-1.7-2.3-1.9c-1.1-0.2-2.2-0.1-3.3 0c-1.2 0.2-2.3 0.6-3.5 0.9c-0.1 0.1-0.3 0.2-0.5 0.2zm9.9 9.1v-2c0-0.4 0-0.4-0.4-0.4q-1.4 0-2.7 0.1q-0.3 0.1-0.5 0.1q-0.3 0-0.5 0q-0.2 0.1-0.4 0.1q-0.3 0.1-0.5 0.2c-0.8 0.2-1.5 0.5-1.9 1.2c-0.5 0.7-0.6 1.4-0.5 2.2c0 1.5 0.9 2.5 2.4 2.8c0.7 0.1 1.5 0 2.2-0.2c0.9-0.4 1.7-0.9 2.5-1.5c0.2-0.2 0.3-0.4 0.3-0.7q0-1 0-1.9zm-32.9-0.6v7.1c0 0.4 0 0.4-0.5 0.4h-2.2c-0.4 0-0.4 0-0.5-0.5q-0.1-0.6-0.2-1.2c-0.1-0.3-0.2-0.3-0.4-0.1q-0.7 0.6-1.5 1.1q-0.3 0.2-0.8 0.4q-0.4 0.2-0.8 0.3q-0.5 0.2-0.9 0.3q-0.4 0.1-0.9 0.2c-0.9 0.1-1.9-0.1-2.8-0.3c-0.7-0.1-1.4-0.3-2-0.8c-0.9-0.5-1.4-1.4-1.7-2.4c-0.4-1.3-0.5-2.7-0.1-4c0.4-1.2 1.1-2.1 2.1-2.8q1.9-1.4 4.2-1.7c1.3-0.2 2.6-0.3 4-0.3q0.4 0 0.7-0.1q0.3 0 0.3-0.2c0-1.1 0-2.1-0.3-3.1q-0.6-1.6-2.3-1.9c-1.1-0.2-2.2-0.1-3.4 0.1c-1.2 0.1-2.3 0.5-3.4 0.9h-0.2c-0.3 0.1-0.3 0.1-0.4-0.2q-0.2-0.9-0.5-1.8c0-0.3 0-0.4 0.3-0.5q0.2-0.1 0.4-0.2q0.2-0.1 0.5-0.2q0.2-0.1 0.4-0.1q0.3-0.1 0.5-0.2c1.6-0.4 3.3-0.8 5-0.8c1.2-0.1 2.4 0 3.5 0.4q3.3 1.1 3.8 4.5q0.1 0.5 0.1 1q0 3.4 0 6.7zm-4 0.6v-1.1q0-0.5 0-1c0-0.2 0-0.3-0.3-0.3q-0.2 0-0.3 0q-0.3 0-0.7 0q-0.3 0-0.6 0.1q-0.3 0-0.6 0q-0.3 0-0.7 0c-0.8 0.1-1.7 0.3-2.5 0.6q-1.4 0.6-1.7 2.1q-0.1 0.7-0.1 1.4c0.2 1.1 0.8 1.9 1.9 2.3c0.9 0.4 1.7 0.3 2.5 0c1.1-0.3 2-0.9 2.9-1.6c0.2-0.2 0.2-0.3 0.2-0.5q0-1 0-2zm15.5 2.7q0.2-0.4 0.3-0.9c1-2.9 1.9-5.9 2.7-9q0.5-2.1 0.8-4.4q0-0.4 0.1-0.9c0-0.3 0-0.3 0.3-0.3q0.3 0 0.6 0q1.5 0 2.9 0c0.2 0 0.3 0 0.4 0c0 0.4-0.1 0.8-0.2 1.2c-0.8 3.5-1.6 7.1-2.7 10.5c-0.8 2.5-1.7 5-2.8 7.4c-0.2 0.5-0.5 0.7-1.1 0.7c-1.3-0.1-2.6-0.1-3.9-0.1c-0.4 0-0.4 0-0.5-0.3l-1.9-6.3l-3.2-10l-0.8-2.8c-0.1-0.3-0.1-0.3 0.2-0.3q1.8 0 3.7 0c0.3 0 0.4 0.1 0.5 0.4q0.6 1.7 1.1 3.5c0.9 2.8 1.8 5.6 2.6 8.4q0.4 1.4 0.7 2.9c0.1 0.1 0 0.2 0.2 0.3zm-38.5 9.1c0.1-0.1 0.2-0.1 0.3-0.2c1.4-0.6 2.4-1.7 3.1-3.1q0.2-0.5 0.3-0.9q0.2-0.4 0.3-0.9q0.1-0.4 0.1-0.9q0.1-0.4 0.1-0.9q0-0.6 0-1.2v-22.9c0-0.8 0-0.7 0.6-0.7q1.7 0 3.3 0q0.1 0 0.2 0q0.2 0.1 0.2 0.3q0 0.1 0 0.2v23.3c0 1.7-0.3 3.4-0.9 5c-1 2.4-2.7 4.1-5.2 5q-0.1 0.1-0.2 0.1q-0.2 0.1-0.4-0.1q-0.9-1.1-1.8-2.1zm-36.9-18.6c-1.2-1.1-2.2-2.2-3.3-3.3c-1.6-1.8-3.1-3.6-4.4-5.5q-0.3-0.4-0.5-0.7q-0.2-0.4-0.4-0.7q-0.3-0.4-0.5-0.7q-0.2-0.4-0.3-0.8c-0.7-1.4-0.7-2.9-0.1-4.3c0.5-1.1 1.2-2 1.9-2.9c1.2-1.4 2.6-2.7 4-3.9c2.1-1.8 4.2-3.6 6.4-5.3c1.4-1.2 2.6-2.4 3.6-3.9c1.1-1.8 1.8-3.7 2.1-5.8q0-0.4 0.1-0.9q0-0.5 0-0.9q-0.1-0.5-0.1-1q-0.1-0.4-0.1-0.9q-0.1 0-0.1-0.1q0 0 0 0q0 0 0-0.1q0 0 0 0c0-0.1 0-0.2 0.1-0.2c0.1 0 0.1 0 0.2 0.1c0.3 0.4 0.5 0.9 0.7 1.4c0.4 1.5 0.6 3 0.6 4.6q-0.1 3.7-2.3 6.8c-0.7 1-1.5 1.8-2.4 2.7c-2.2 2.1-4.4 4.1-6.5 6.3c-1.1 1.2-2.2 2.3-3.1 3.6q-0.1 0.3-0.3 0.5q-0.1 0.3-0.3 0.6q-0.1 0.2-0.3 0.5q-0.1 0.2-0.2 0.5c-0.5 1.2-0.6 2.3-0.3 3.5c0.4 1.3 0.9 2.6 1.4 3.8c1.1 2 2.3 3.9 3.6 5.8q0.3 0.4 0.6 0.8c0 0.1 0.1 0.3 0.2 0.4zm-16.4 23.8q-0.7 0.2-1.5 0.3c-1.2 0.3-2.5 0.5-3.6 1c-0.5 0.2-0.9 0.3-1.3 0.6q-0.4 0.2-0.6 0.6q-0.3 0.6 0.2 0.9c0.3 0.3 0.7 0.5 1.2 0.6c0.8 0.3 1.7 0.5 2.6 0.7c1.5 0.2 3.1 0.4 4.6 0.6c1.7 0.2 3.4 0.3 5.1 0.4c1.9 0.1 3.9 0.1 5.8 0.1q2.7-0.1 5.4-0.1q0.6-0.1 1.3-0.1q0.6 0 1.2 0q0.7-0.1 1.3-0.1q0.6 0 1.3-0.1q1.4-0.1 2.7-0.1q1.8-0.2 3.6-0.3q1.4-0.2 2.8-0.3c2.2-0.3 4.4-0.7 6.5-1.3q0.2-0.1 0.4-0.1q0.2-0.1 0.4-0.2q0.2-0.1 0.4-0.2q0.2-0.1 0.4-0.2q0.3-0.2 0.6-0.5q0.4-0.4 0.2-1q-0.1-0.2-0.1-0.5c0 0 0.1 0 0.2 0.1q0.3 0.2 0.6 0.6c0.2 0.4 0.2 0.7 0 1.1q-0.4 0.4-0.8 0.7c-0.8 0.6-1.7 1.1-2.6 1.5c-1.9 0.7-3.9 1.2-5.9 1.6q-0.6 0.2-1.2 0.3q-0.6 0.1-1.2 0.2q-0.7 0.1-1.3 0.2q-0.6 0-1.3 0.1q-2.4 0.3-4.9 0.4q-2.9 0.2-5.9 0.3q-2.8 0.1-5.5 0.1q-2.7 0-5.3-0.1q-1.9-0.1-3.9-0.2q-0.5 0-1-0.1q-0.5 0-1.1 0q-0.5-0.1-1-0.1q-0.5-0.1-1-0.1q-2.4-0.2-4.7-0.6c-1.2-0.2-2.4-0.5-3.6-1q-0.1 0-0.2-0.1q-0.2 0-0.3-0.1q-0.1-0.1-0.2-0.1q-0.1-0.1-0.3-0.2q0 0-0.1-0.1q0 0-0.1-0.1q0 0 0-0.1q-0.1 0-0.1-0.1c-0.2-0.2-0.3-0.5-0.2-0.8c0.2-0.6 0.6-1 1-1.3c0.6-0.5 1.3-0.9 2.1-1.2c1.6-0.6 3.2-1 4.9-1.2q0.3-0.1 0.7-0.1q0.3-0.1 0.7-0.1q0.3-0.1 0.6-0.1q0.4 0 0.7-0.1q0.2 0 0.4 0q0.1 0 0.3 0.1q0.2 0 0.3 0q0.2 0 0.3 0z" />
			<path id="Layer" class="s0" d="m45.7 15.7c0 0.1-0.2 0.2-0.3 0.2c-1.4 0.9-2.8 1.8-4.2 2.8c-1.6 1.1-3.2 2.3-4.7 3.7c-1 0.9-1.9 1.9-2.6 3.1c-0.4 0.8-0.7 1.7-0.6 2.6c0 0.6 0.3 1.2 0.5 1.8c0.5 0.8 1 1.6 1.5 2.4c0.6 0.9 1.2 1.8 1.6 2.8q0.3 0.7 0.5 1.3c0.3 1.3 0.1 2.5-0.6 3.7c-0.5 0.9-1.2 1.6-1.9 2.4q-0.3 0.3-0.7 0.6q-0.3 0.3-0.7 0.6q-0.4 0.2-0.8 0.5q-0.3 0.3-0.7 0.5q-0.1 0-0.1 0q0 0.1-0.1 0.1q0 0 0 0q0 0-0.1 0q0 0.1-0.1 0c0.1-0.1 0.1-0.2 0.2-0.2c0.6-0.8 1.1-1.6 1.6-2.5q0.9-1.8-0.1-3.7c-0.4-0.8-1-1.6-1.5-2.4c-0.6-0.7-1.1-1.5-1.6-2.3c-0.7-1.3-1.2-2.7-1.3-4.2c-0.1-1.5 0.3-2.9 1.1-4.2c0.8-1.5 2-2.7 3.3-3.8c1.7-1.3 3.6-2.4 5.5-3.3q0.8-0.4 1.6-0.7q0.8-0.4 1.6-0.7q0.9-0.3 1.7-0.6q0.8-0.2 1.6-0.5c0.2 0 0.3-0.1 0.4 0zm-27.8 44.3c0.1 0.2 0 0.2-0.1 0.3q-0.4 0.8 0.3 1.3c0.4 0.3 0.9 0.4 1.4 0.5c0.6 0.1 1.2 0.2 1.7 0.2q3.3 0.2 6.5 0.1q0.6-0.1 1.2-0.1q0.6 0 1.2 0q0.6-0.1 1.1-0.1q0.6-0.1 1.2-0.1c1.3-0.2 2.6-0.4 3.9-0.7c0.3-0.1 0.5 0 0.8 0.2q0.1 0.1 0.3 0.2q0.2 0.1 0.4 0.2q0.2 0.1 0.4 0.3q0.2 0.1 0.4 0.2q1 0.5 2 1q0.1 0 0.2 0.1c-0.2 0.1-0.5 0.2-0.8 0.3c-1.9 0.6-3.7 1.1-5.6 1.5q-2.8 0.5-5.7 0.7c-1.6 0-3.2-0.1-4.8-0.2q-2.1-0.1-4.2-0.5c-1.2-0.3-2.3-0.6-3.4-1.1q-0.5-0.3-1-0.7c-0.7-0.8-0.8-1.6 0-2.3c0.7-0.7 1.5-1.1 2.5-1.3q0.1 0 0.1 0zm24.1-4.8c-0.4 0.2-0.7 0.3-1 0.4q-0.8 0.2-1.6 0.4q-0.8 0.2-1.6 0.4q-0.8 0.2-1.5 0.3q-0.8 0.2-1.6 0.3q-1.5 0.3-3.1 0.4c-1.4 0.1-2.9 0.2-4.4 0.2q-2.2-0.1-4.5-0.2q-0.4 0-0.9-0.1q-0.4 0-0.9 0q-0.4-0.1-0.9-0.1q-0.4 0-0.9-0.1c-1.6-0.2-3.2-0.4-4.7-0.9q-0.1-0.1-0.3-0.2q-0.1 0-0.3-0.1q-0.1 0-0.3-0.1q-0.1-0.1-0.3-0.2q-1.2-0.7-0.5-2q0-0.1 0.1-0.2q0.1-0.1 0.1-0.2q0.1-0.2 0.2-0.3q0.1 0 0.2-0.1c0.9-0.7 1.9-1.1 2.9-1.3c0 0.2-0.2 0.3-0.3 0.4q-0.2 0.3-0.3 0.6q-0.3 0.6 0.3 1c0.3 0.3 0.6 0.5 1 0.6c0.6 0.2 1.3 0.3 2 0.4c2.1 0.2 4.3 0.2 6.5 0.2q0.5-0.1 1-0.1q0.6 0 1.1 0q0.5-0.1 1-0.1q0.5 0 1 0q0.6-0.1 1.2-0.1q0.7-0.1 1.3-0.1q0.6-0.1 1.2-0.2q0.6 0 1.3-0.1c1.2-0.2 2.5-0.4 3.8-0.6c0.4-0.1 0.8 0 1.1 0.3c0.8 0.7 1.6 1.2 2.6 1.5z" />
			<path id="Layer" class="s0" d="m19 42.6l-1.5 0.4c-1.3 0.4-2.6 0.8-3.8 1.3c-0.5 0.3-1 0.5-1.4 0.8q-0.2 0.2-0.3 0.5q-0.2 0.4 0.1 0.6c0.2 0.2 0.5 0.3 0.8 0.4c0.6 0.1 1.2 0.2 1.8 0.3c1.9 0.2 3.9 0.3 5.8 0.4q2.5 0 5 0q0.5 0 1 0q0.5-0.1 1-0.1q0.6 0 1.1-0.1q0.5 0 1 0c1.1-0.1 2.1-0.2 3.2-0.3q0.9-0.1 1.7-0.1q0.9-0.1 1.7-0.2q0.9-0.1 1.7-0.2q0.9-0.1 1.7-0.2q2.3-0.3 4.5-0.7c0.3 0 0.6-0.1 0.9-0.1c0 0.2-0.1 0.2-0.2 0.2q-1.3 0.8-2.7 1.7q0 0-0.1 0q-0.1 0.1-0.2 0.1q0 0-0.1 0.1q-0.1 0-0.2 0q-2.5 0.4-5 0.7q-2.5 0.3-5.1 0.6q-3 0.3-6 0.4c-2.2 0.1-4.4 0.1-6.7 0q-2.5-0.1-4.9-0.3c-1.8-0.2-3.5-0.4-5.3-0.8q-0.1 0-0.3 0q-0.2-0.1-0.3-0.1q-0.2-0.1-0.4-0.1q-0.1-0.1-0.3-0.2q-0.1 0-0.2 0q-0.1-0.1-0.2-0.1q-0.1-0.1-0.2-0.1q0-0.1-0.1-0.2q-0.5-0.4-0.1-0.8q0.3-0.4 0.8-0.7c1.1-0.6 2.3-1.1 3.5-1.5q0.7-0.3 1.4-0.5q0.7-0.2 1.4-0.4q0.8-0.1 1.5-0.3q0.7-0.1 1.5-0.3c0.7-0.1 1.4-0.2 2.1-0.2q0.2 0 0.4 0q0 0 0 0.1zm-8.1 32.6q0.7 0.1 1.3 0.1c2 0.2 4 0.4 6 0.5q2.7 0.2 5.3 0.3q3.7 0.1 7.4 0.1q2.6-0.1 5.3-0.2q0.6-0.1 1.2-0.1q0.6-0.1 1.2-0.1q0.6-0.1 1.3-0.2q0.6 0 1.2-0.1c2.4-0.3 4.8-0.6 7.1-1.2c2.2-0.5 4.2-1.2 6.2-2.2q0.3-0.2 0.7-0.3q0.3-0.2 0.6-0.4q0.4-0.2 0.7-0.5q0.3-0.2 0.6-0.4c0.1-0.1 0.2-0.2 0.3-0.2c0.1 0.1 0 0.1 0 0.2c-0.2 0.5-0.5 0.9-0.8 1.3c-0.8 0.9-1.9 1.5-3 2.1c-1.9 0.9-3.9 1.6-6 2q-3.6 0.7-7.2 1.1q-2.6 0.2-5.3 0.4q-0.9 0.1-1.9 0.1q-1 0-1.9 0.1q-1 0-2 0q-0.9 0-1.9 0c-2.7-0.1-5.4-0.2-8-0.6c-2.7-0.3-5.4-0.8-8-1.6q-0.1 0-0.1 0q0 0-0.1 0q0 0 0-0.1q-0.1 0-0.1 0q0 0 0 0q0 0 0 0q0 0-0.1 0q0 0 0 0zm34.5-18.4q0.5-0.3 1-0.6c1.8-1.1 3.5-2.4 5.1-3.9c0.8-0.9 1.6-1.8 2.1-2.9c0.3-0.7 0.6-1.3 0.6-2c0.2-1.9-0.7-3.9-3.1-4.5c-1.2-0.3-2.4-0.4-3.7-0.1q0 0-0.1 0c0-0.2 0.1-0.2 0.2-0.3c0.6-0.3 1.1-0.5 1.8-0.7c1.4-0.3 2.9-0.2 4.2 0.3c1.2 0.5 2.1 1.1 2.9 2.1c1.1 1.6 1.3 3.3 0.5 5c-0.5 1.2-1.3 2.2-2.2 3.1c-1.1 0.9-2.2 1.7-3.5 2.4c-1.7 0.9-3.6 1.6-5.4 2.1c-0.1 0-0.2 0.1-0.4 0zm87.2-20.2c-0.1 0.1-0.2 0.3-0.2 0.4q-0.1 0.1-0.1 0.2c-0.1 0.1-0.1 0.2-0.2 0.2c-0.1 0-0.1-0.1-0.2-0.2c-0.1-0.2-0.1-0.4-0.3-0.6c-0.1 0.1-0.1 0.3-0.1 0.4q0 0.2 0 0.3q0 0.1-0.2 0.1q0 0 0 0q0 0 0 0q0-0.1-0.1-0.1q0 0 0 0q0 0 0-0.1q0 0 0 0q0 0 0 0q0-0.1 0-0.1q0-0.1 0-0.2q0-0.2 0-0.3q0-0.1 0-0.3q0-0.1 0-0.2c0-0.1 0-0.2 0.1-0.3c0.2 0 0.3 0 0.4 0.2q0.1 0.3 0.3 0.6c0 0.1 0 0.1 0.1 0.2c0.1-0.1 0.1-0.2 0.2-0.4q0.1-0.2 0.2-0.5c0.1-0.1 0.2-0.1 0.3-0.1c0.2 0.1 0.2 0.1 0.2 0.3v1q0 0 0 0.1q0 0 0 0q0 0 0 0q0 0 0 0c0 0.1-0.1 0.2-0.2 0.2c-0.1 0-0.1-0.1-0.1-0.2q0-0.1 0-0.3c0-0.1 0-0.2-0.1-0.3zm-2.3-0.8h0.5c0 0 0.1 0 0.1 0.1c0 0.1 0 0.2-0.1 0.2c-0.3 0-0.3 0-0.3 0.4q0 0.3 0 0.7c0 0.1-0.1 0.2-0.2 0.2c-0.1 0-0.2-0.1-0.2-0.3q0-0.3 0-0.7c0-0.3 0-0.3-0.3-0.3c0 0-0.1-0.1-0.1-0.1c0-0.1 0.1-0.2 0.1-0.2q0.3 0 0.5 0z" />
		</g>
	</g>
</svg>