<svg version="1.2" xmlns="http://www.w3.org/2000/svg" viewBox="0 0 144 80" width="144" height="80">
	<title>jenkins-svg</title>
	<defs>
		<clipPath clipPathUnits="userSpaceOnUse" id="cp1">
			<path d="m0 0h144v80h-144z" />
		</clipPath>
	</defs>
	<style>
		.s0 { fill: #6b8e23 } 
		.s1 { fill: #f2f2f2 } 
	</style>
	<g id="Clip-Path" clip-path="url(#cp1)">
		<g id="Layer">
			<path id="Layer" fill-rule="evenodd" class="s0" d="m24.5 69c-2 0-3.7-0.1-5.4-0.5q-0.2-0.1-0.3-0.1q-0.1-0.1-0.3-0.2q-0.1-0.1-0.2-0.2q0-0.2-0.1-0.3q-0.2-0.6-0.4-1.2q-0.2-0.7-0.4-1.3q-0.2-0.6-0.4-1.3q-0.2-0.6-0.3-1.2c-0.1-0.5-0.3-0.6-0.7-0.6c-1.4 0.1-2.7-0.4-3.9-0.9c-1.2-0.6-2.3-1.2-3.5-1.6c-0.6-0.2-0.9-0.7-0.9-1.3c0-0.9-0.1-1.8-0.1-2.7q0-0.1 0-0.2q0-0.1-0.1-0.2q0-0.1-0.1-0.2q-0.1-0.1-0.2-0.2c-9.7-8.8-9.6-24.1 0.3-32.8q0.1-0.1 0.2-0.2q0-0.1 0.1-0.2q0-0.1 0.1-0.2q0-0.1 0-0.2c0.1-1.2 0.2-2.4 1.1-3.2c0.7-0.7 1.2-1.5 1.7-2.4q0.5-0.9 1.4-1.4c2.6-1.8 5.3-3.3 8.4-3.9c3.1-0.5 6.2-0.5 9 1.1c3.7 2.1 6 5.2 6.4 9.6c0 0.4 0.1 0.8 0.1 1.2q0 0.1 0 0.2q0 0.1 0.1 0.2q0 0.1 0.1 0.1q0 0.1 0.1 0.2q5.6 5.5 6.4 13.3q0.2 1.7 0.1 3.3q0 1.7-0.4 3.3q-0.3 1.7-0.9 3.3q-0.5 1.5-1.4 3c-0.2 0.3-0.2 0.6 0.2 0.8q0.1 0 0.1 0q0.1 0.1 0.1 0.1q0.1 0.1 0.1 0.1q0 0.1 0.1 0.1c1 2.1 2 4.1 1.4 6.5c-0.5 1.8-1.2 2.4-3.2 2.6c-0.8 0.1-1.6 0-2.3-0.2q-0.1 0-0.2 0q-0.1 0-0.1 0q-0.1-0.1-0.2-0.1q0 0-0.1-0.1c-0.2-0.2-0.3-0.5-0.7-0.5c-0.8 0-1.6 0.1-2.4 0.4c-0.2 0.1-0.1 0.3-0.2 0.4c0 0.3-0.2 0.5-0.4 0.6c-0.6 0.1-0.6 0.5-0.6 0.9c0 0.9 0.3 1.7 0.5 2.5q0 0.3 0.1 0.6c0.1 1.3-0.2 1.8-1.5 2.1c-0.7 0.1-0.9 0.4-0.8 1c0.1 0.8-0.1 1.2-0.9 1.6c-0.6 0.3-1.3 0.3-2 0.3c-1 0.1-1.9 0.2-2.6 0.2zm8.6-52.4c-0.3-0.4-0.5-0.6-0.7-0.9c-2.4-3.9-9.5-5.9-13.6-2.9c-1.4 1.1-3 2-4 3.6c-0.1 0.2-0.3 0.4-0.2 0.8c0.5 1.1 0.3 2.2 0 3.3c-0.4 1.7-0.6 3.4 0.1 5c0 0.2 0 0.5 0.1 0.7c0 0.3-0.1 0.5-0.4 0.6c-0.4 0.3-0.9 0.3-1.4 0.2c-0.3-0.1-0.2-0.5-0.3-0.8c-0.6-1.7-2.1-2.2-3.4-1.1q-0.2 0.2-0.3 0.3q-0.2 0.2-0.3 0.4q-0.1 0.2-0.2 0.4q-0.1 0.2-0.1 0.4c-0.3 1.1 0.1 2.1 0.6 3.1c0.4 0.7 0.9 1.3 1.8 1.5c0.7 0.2 1.2-0.2 1.8-0.5c0.1-0.2 0.4-0.3 0.6-0.1c0.2 0.2 0 0.5-0.1 0.7q0 0-0.1 0.1q0 0 0 0.1q-0.1 0-0.1 0q-0.1 0.1-0.1 0.1c-0.4 0.4-0.5 0.8-0.4 1.3c0.3 1.4 0.9 2.6 1.5 3.9c0.7 1.4 1.8 2.1 3.3 2.4c0.7 0.1 1.5 0.4 2 0.1c0.8-0.5 1.5-0.6 2.3-0.5c-1.8-1.6-3.7-3-4.3-5.5q0.4 0.4 0.6 0.8c1 1.3 2.1 2.6 3.5 3.5c3.5 2.4 8.2 1.4 10.7-2c2.6-3.8 3.4-7.9 3.2-12.3c-0.1-1.1-0.1-2.2-0.4-3.3c-0.3-1.5-2.2-2.9-3.9-2c-0.1-1 0.4-1.4 2.2-1.4zm-3.7 28.6c0-0.2 0.3-0.5-0.1-0.7c-1-0.6-1.9-1-3.1-0.5c-0.3 0.1-0.5 0.4-0.3 0.7c0.8 1.2 1.4 2.5 2 3.8c0.2 0.6 0.5 1.3 0.9 1.9q0.1-0.1 0.1-0.1q0-0.1 0.1-0.2q0-0.1 0-0.2q0-0.1 0-0.2c0.4-1.5 0.4-3 0.4-4.5zm4.5 11.3q0-0.3 0-0.5c-0.1-1.1-0.2-2.2-0.7-3.2c-0.2-0.5-0.7-0.3-1.1-0.3c-0.2 0-0.3 0.1-0.2 0.3l0.6 4.2q0 0.4 0 0.7c0 0.2 0.1 0.3 0.3 0.3c0.8 0 1.2-0.4 1.2-1.1q-0.1-0.2-0.1-0.4zm-4.4-6.2q0 0 0 0q0 0 0 0zm2.9-4.5c0.2-0.4 0.2-0.6-0.1-0.8q-0.2-0.2-0.3-0.3q-0.1-0.1-0.3-0.1q-0.2-0.1-0.3-0.2q-0.2 0-0.4 0c-0.6-0.1-0.9 0.1-0.9 0.8q-0.1 0.8-0.1 1.6c-0.1 1.2-0.4 2.3-0.5 3.5q1.5-2.3 2.9-4.5zm-3 4.5h0.1zm-15.5-32.3c0.1-0.6-0.1-0.8-0.7-0.7c-1.7 0.4-3.2 1.1-3.8 2.8c-0.5 1.1-0.3 2.3-0.2 3.5c0 0.3 0.1 0.2 0.3 0.1q0.3-0.1 0.7-0.2c1.4-0.4 3.1 0.6 3.3 2.1c0.1 0.1-0.1 0.4 0.2 0.3c0.2 0 0.3-0.2 0.3-0.4q0 0 0-0.1q0 0 0-0.1q0-0.1 0-0.1q0-0.1 0-0.1c-0.5-1.5-0.3-3-0.1-4.5c0.1-0.8 0.4-1.7 0-2.6q0 0 0 0zm26.9 35.9q-0.1-0.3-0.1-0.6q-0.1-0.3-0.2-0.6q0-0.3-0.2-0.6q-0.1-0.3-0.2-0.6c-0.5-1-1.3-1.2-2.3-0.8c-0.4 0.2-0.7 0.3-1.1 0.5c-0.7 0.3-1.5 0.4-2.2 0.9c-0.3 0.1-0.5 0.3-0.4 0.7c0.4 1.3 0.5 2.7 0.6 4c0 0.5 0.1 0.8 0.8 0.7q0.6-0.1 1.2-0.1c0.8 0 1.5-0.1 2.4 0.2c-0.8 0.3-1.7 0.3-2.5 0.7c0.8 0.2 1.4 0.2 2 0.1c1.7-0.1 2.6-1.2 2.6-2.8q-0.1-0.2-0.1-0.4q0-0.3 0-0.5q-0.1-0.2-0.2-0.4q0-0.2-0.1-0.4q0 0 0 0zm-13.6-1.2q-0.5-0.1-0.9-0.1c-3-0.3-5.9 0-8.9 0.5c-1.1 0.2-1.1 0.2-1 1.3c0.5 4.1 1.3 8.2 2.5 12.1c0.1 0.3 0.2 0.5 0.5 0.6c1.8 0.4 3.6 0.7 5.4 0.6c1 0.1 1.9-0.1 2.8-0.2c1.4-0.3 1.3-0.3 1.3-1.6q-0.5-6.2-0.8-12.3c-0.1-0.7-0.2-1-0.9-0.9zm-14.6-36.3c0.7 0 1.6 0.3 2.1-0.6c0.4-0.7 0.9-1.4 1.5-2q0.6-0.4 1.2-0.8c0.1-0.1 0.4-0.2 0.3-0.4c-0.1-0.2-0.3-0.2-0.5-0.1c-2.1 0.7-3.9 1.6-5.4 3.3c-0.3 0.3-0.6 0.6-0.7 1.1c0.6-0.1 1-0.3 1.5-0.5zm13 34.8l-0.6-0.3c-1.2-0.5-2.3-1-3.5-1.6c-0.6-0.4-0.7-0.8-0.3-1.4c0.2-0.3 0.4-0.5 0.5-0.8c-1.3 0-1.5-0.2-1.8-1.3c-0.3-1-0.7-1.9-0.9-2.9c0-0.4-0.3-0.7-0.7-0.8c-1.8-0.9-3.6-1.7-4.8-3.5c-0.2-0.4-0.5-0.4-0.9-0.2c-2.3 1-4.4 2.5-6.4 4c-0.3 0.2-0.4 0.5-0.2 0.9q0.3 0.7 0.5 1.4c1.4 3.7 2.1 7.5 2.2 11.5c0.1 1.1 0.3 2 1.6 2.5c1.8 0.8 3.5 1.8 5.6 2.1c0.5 0.1 0.7 0 0.6-0.5q0-0.3 0-0.5q-0.4-3-0.7-6c-0.1-0.4-0.2-0.6-0.6-0.6c-0.6 0-1.2 0.1-1.7 0c-0.2 0-0.5 0.2-0.5-0.1c-0.1-0.3 0.2-0.4 0.4-0.5c0.8-0.3 0.8-0.3 0.4-1c0-0.1-0.2-0.3 0-0.4c0.1-0.2 0.3-0.1 0.4 0q0.4 0.2 0.7 0.4c0.3 0.3 0.5 0.2 0.6-0.2q0-0.2 0-0.5q0.1-0.2 0.1-0.5q0-0.2 0-0.4q0-0.3 0-0.5c-0.1-0.9-0.4-1.8-0.1-2.7c0.1-0.2 0.1-0.5 0.4-0.4c0.2 0 0.2 0.2 0.2 0.4q0 0.3 0 0.5q0 0.5-0.1 0.9q0 0.5 0 1q0 0.5 0 1q0 0.5 0 0.9c0 0.9 0.2 1.1 1.1 1q0.9-0.2 1.9-0.3q1-0.1 2-0.2q0.9 0 1.9-0.1q1 0 2-0.1c0.2 0 0.4 0.1 0.7-0.2zm-18.2 1.9q0 0 0 0q0 0 0 0zm-1.1-5.1c-0.6-1.7-1.3-3.3-1.8-5c-0.2-0.9 0.1-1.4 0.9-1.8q0.8-0.5 1.6-1q0.8-0.4 1.6-0.9q0.8-0.5 1.6-1q0.8-0.4 1.6-0.9c0.9-0.6 1-0.9 0.4-1.8q-0.2-0.3-0.4-0.6q-0.1-0.3-0.2-0.6q-0.2-0.3-0.2-0.7q-0.1-0.3-0.2-0.7c0-0.2-0.1-0.3-0.3-0.4c-1.9-0.4-2.9-1.8-3.4-3.6c-0.4-1.5-0.6-3.1 0.4-4.5c0.2-0.4 0.2-0.7 0-1.1c-8.3 7.2-9 21.4-0.5 29.7c-0.3-1.9-0.5-3.5-1.1-5.1zm28.2 2.6c1.1-0.5 2.2-1 3.5-1.2c0.4 0 0.6-0.2 0.8-0.6c2-3.6 3-7.5 2.7-11.7q-0.1-1.4-0.4-2.8q-0.3-1.4-0.8-2.7q-0.4-1.4-1.1-2.6q-0.6-1.3-1.5-2.4c-0.4-0.7-0.9-1.4-1.6-2c-0.1 0.1-0.1 0.2-0.1 0.3c-0.1 3.6-0.7 7.1-2.5 10.2q-0.4 0.8 0.2 1.3q1.2 1.1 2.4 2.2c1.5 1.2 1.6 1.6 1.1 3.5q-1.3 3.8-2.6 7.7c-0.1 0.2-0.2 0.5-0.1 0.8zm-4.8 0.6c0.8-0.1 1.4 0 2.1 0c0.8-0.1 1.4-0.4 1.8-1.3c1.1-2.7 2-5.4 2.6-8.3c0.1-0.5 0-1-0.4-1.4q-0.4-0.4-0.8-0.7q-0.4-0.4-0.8-0.7q-0.4-0.4-0.8-0.7q-0.4-0.4-0.8-0.8c-0.1-0.1-0.3-0.2-0.4 0q-0.1 0.1-0.2 0.1q-0.1 0.1-0.2 0.2q0 0.1-0.1 0.1q-0.1 0.1-0.2 0.1c-0.2 0.2-0.3 0.4 0.1 0.5c0.6 0.2 0.9 0.7 1.1 1.3q0.2 0.4 0.2 0.9q0.1 0.5 0.1 1q0.1 0.5 0 1q-0.1 0.5-0.2 0.9c-0.2 0.6-0.1 1 0.3 1.4c0.3 0.2 0.3 0.4 0.1 0.7q-0.3 0.4-0.5 0.8q-0.3 0.4-0.5 0.8q-0.3 0.4-0.5 0.9q-0.3 0.4-0.5 0.8q-0.7 1.2-1.5 2.4zm-5.5-8.8c0.4-0.2 0.8-0.3 1.1-0.4q0 0 0.1 0q0 0 0 0q0.1-0.1 0.1-0.1q0-0.1 0-0.1c0-0.1-0.1-0.2-0.2-0.2c-1.2-0.4-2.2-1.2-3.4-1.6c-1.8-0.5-2.2-0.2-2.3 1.7c0 1.5 0.5 2.8 1 4.1c0.1 0.3 0.3 0.3 0.6 0.3c1.7-0.3 3-1.3 4.3-2.4c0.3-0.3 0.1-0.9-0.3-1c-0.3-0.1-0.6-0.2-1-0.3zm3.7 8.3c-0.5-1-0.9-1.8-1.2-2.7q-0.2-0.3-0.4-0.6q-0.1-0.4-0.3-0.7q-0.2-0.3-0.4-0.6q-0.2-0.3-0.4-0.7c-0.1-0.1-0.2-0.3-0.5-0.1c-0.7 0.5-1.5 1-2.1 1.7c-0.7 0.9-0.7 1.1 0.3 1.7c1.6 0.8 3.1 1.5 5 2zm1.6-8.9c-0.3 0.1-0.4 0.1-0.6 0.1c-0.5 0.1-0.6 0.4-0.6 0.9c0 0.5 0.2 0.6 0.6 0.6q1.2 0.3 2.3 0.3c0.8 0.1 1 0 1-0.8q0-0.3 0-0.7q0-0.3 0-0.6q0-0.4-0.1-0.7q0-0.3-0.1-0.6c-0.3-0.8-0.7-1-1.4-0.8c-0.9 0.3-1.6 0.9-2.4 1.4c-0.2 0.1-0.1 0.3-0.1 0.4c0.1 0.2 0.1 0.4 0.4 0.4q0.5-0.1 1 0.1zm1.7 16.5q-0.1-1.7-0.3-3.4q-0.1-0.9-0.3-1.8c0-0.4-0.2-0.6-0.6-0.4q-0.3 0-0.5 0c-0.5 0-0.7 0.2-0.7 0.7c0 1.6 0.1 3.2 0.2 4.8c0.1 1.2 0.1 1.1 1.1 0.9q0.3-0.1 0.6-0.1c0.4 0 0.6-0.2 0.5-0.7zm-2 3.8c0 0.7 0.1 1.4 0.1 2.1c0.1 0.8 0.1 0.8 0.9 0.6c1-0.2 1.1-0.3 0.9-1.3c-0.1-0.8-0.3-1.7-0.4-2.5c-0.2-1-0.2-1-1.2-0.7c-0.3 0.1-0.3 0.2-0.3 0.5c0 0.4 0 0.9 0 1.3zm-10.2-21.7c0.1-0.4-0.2-0.4-0.5-0.4c-0.7-0.1-1.4-0.1-2.1-0.3c-0.1-0.1-0.3-0.2-0.4-0.1c-0.1 0.2 0 0.4 0.2 0.5c0.5 0.5 1.2 0.7 1.9 0.9c0.7 0.2 0.8 0.2 0.9-0.6zm5.6-0.5c1.4 1.1 2.6 1.2 3.9-0.4c-1.4 0.2-2.6 0.8-3.9 0.4zm1.5 2.3c0.1 0.3-0.1 0.9 0.6 0.9c0.5 0 0.9-0.4 0.9-0.9c-0.1-0.5-0.3-0.8-0.8-0.8c-0.5 0-0.8 0.2-0.7 0.8zm71.4-1.9l4.8-4.3q-0.1 0-0.2 0q-0.1 0-0.1 0q-0.1 0-0.2 0q-0.1 0-0.2 0c-0.6 0.1-0.7-0.1-0.7-0.7c0-0.5 0.2-0.7 0.7-0.6q2.1 0 4.2 0c0.6-0.1 0.6 0.2 0.5 0.6c0 0.3 0.2 0.9-0.5 0.7c-1.3-0.2-2.2 0.3-3.1 1.3q-0.6 0.6-1.3 1.2c-0.3 0.2-0.3 0.3-0.1 0.6q0.6 0.7 1.1 1.4q0.6 0.8 1.2 1.5q0.6 0.7 1.1 1.4q0.6 0.8 1.1 1.5c0.3 0.4 0.7 0.3 1 0.2c0.7 0 0.6 0.4 0.6 0.7c-0.1 0.3 0.1 0.7-0.5 0.7q-0.8 0-1.5 0q-0.7 0-1.4 0q-0.8 0-1.5 0q-0.7 0-1.5 0c-0.6 0-0.4-0.3-0.4-0.7c-0.1-0.3-0.1-0.7 0.5-0.7q0.4 0.1 0.8 0c-0.3-0.5-0.7-0.9-1.1-1.4c-0.6-0.8-1.3-1.6-1.9-2.4c-0.2-0.3-0.3-0.3-0.6-0.1c-0.6 0.5-0.9 1-0.8 1.8q0 0.2 0 0.4q0.1 0.2 0.1 0.4q0 0.2-0.1 0.5q0 0.2 0 0.4c0 0.3 0.1 0.5 0.5 0.4q0 0 0 0q0.1 0 0.1 0q0 0 0.1 0q0 0 0 0c0.8 0 1.1 0.5 0.8 1.2c0 0.2-0.2 0.2-0.3 0.2q-3.2 0-6.5 0q-0.4 0-0.3-0.4c0.1-0.3-0.4-1 0.5-1c1.2 0 1.2 0 1.2-1.1q0-6.5 0-12.9c0-0.5-0.2-0.7-0.7-0.6q0 0 0 0q-0.1 0-0.1 0q0 0-0.1 0q0 0 0 0q-1.2 0-0.8-1.1c0-0.3 0.2-0.2 0.3-0.2q2.5 0 5 0c0.5 0 0.3 0.3 0.3 0.5q0 4.9 0 9.7zm24.6-4c1.4-1.9 3.2-2.3 5.2-1.8c1.6 0.3 2.6 1.6 2.7 3.3c0.2 2.1 0.1 4.2 0.1 6.2q0.1 0.4 0 0.7q0 0.5 0.4 0.4c0.2 0 0.4 0.1 0.6 0c0.6-0.1 0.8 0.2 0.8 0.8c-0.1 0.4-0.1 0.6-0.6 0.6q-3 0-6 0c-0.7 0-0.6-0.4-0.6-0.7c0-0.4-0.1-0.7 0.5-0.7c1 0.1 1 0 1-0.9q0-2.8 0-5.6q0-0.2 0-0.3q0-0.1 0-0.2q-0.1-0.1-0.1-0.2q0-0.1 0-0.2c-0.1-0.9-0.5-1.4-1.2-1.5c-1-0.2-1.8 0.2-2.3 1c-0.3 0.6-0.4 1.4-0.4 2.1c-0.1 1.8 0 3.6-0.1 5.4c0 0.4 0.2 0.5 0.5 0.4q0.1 0 0.2 0c0.2 0.1 0.6-0.1 0.7 0.1c0.2 0.4 0.1 0.8 0.1 1.1c0 0.2-0.2 0.2-0.4 0.2q-3.2 0-6.3 0c-0.4 0-0.4-0.2-0.4-0.4c-0.1-1-0.1-1 0.9-1c0.6 0.1 0.8-0.1 0.8-0.8q0-0.9 0-1.9q0-0.9 0-1.9q0-1 0-1.9q0-1 0-1.9c0-0.6-0.1-0.8-0.7-0.7q0 0 0 0q-0.1 0-0.1 0q0 0-0.1 0q0 0 0 0c-0.7 0-1.1-0.5-0.8-1.2c0.1-0.2 0.2-0.2 0.4-0.2q2.4 0 4.9 0c0.3 0 0.3 0.1 0.3 0.4c0 0.4 0 0.8 0 1.3zm-41.2 0c1.4-1.9 3.2-2.3 5.2-1.8c1.5 0.3 2.5 1.5 2.7 3.3c0.2 1.7 0 3.4 0.1 5.1q0 0.2 0 0.5q0 0.2 0 0.4q0 0.2 0 0.5q0 0.2 0 0.4c0 0.4 0.1 0.5 0.4 0.4q0.2 0 0.4 0c0.9 0 1.1 0.4 0.9 1.2c-0.1 0.3-0.2 0.2-0.4 0.2q-3.2 0-6.4 0c-0.2 0-0.3-0.1-0.3-0.3c-0.1-1-0.1-1.1 0.9-1.1c0.4 0 0.5 0 0.5-0.4q0-3.1 0-6.2q0-0.3 0-0.7c-0.2-0.9-0.5-1.4-1.3-1.6c-0.9-0.2-1.8 0.2-2.2 1c-0.4 0.6-0.5 1.3-0.5 2c0 1.9 0 3.7 0 5.6c0 0.3 0.1 0.4 0.4 0.3q0 0 0.1 0q0 0 0.1 0q0 0 0 0q0.1 0 0.1 0c0.3 0.1 0.6-0.1 0.7 0.2c0.1 0.3 0 0.7 0 1.1c0 0.2-0.2 0.1-0.4 0.1q-3.1 0-6.3 0c-0.3 0-0.4-0.1-0.4-0.4c0-1 0-1 1-0.9c0.6 0 0.8-0.2 0.7-0.8q0-1 0-1.9q0-1 0-2q0-0.9 0-1.9q0-1 0-1.9c0-0.5-0.1-0.8-0.6-0.7q-0.1 0-0.2 0c-0.8 0-1.1-0.3-0.9-1.1c0.1-0.3 0.2-0.2 0.4-0.2h5c0.2 0 0.3 0.1 0.3 0.3c0 0.4 0 0.8 0 1.3zm-28.4 3v-7.2c0-1 0.2-0.9-0.8-0.9q-0.1 0-0.3 0q-0.1 0-0.2 0q-0.1 0-0.2 0q-0.1 0-0.2 0c-0.6 0.1-0.7-0.1-0.7-0.6c0-0.6 0.2-0.8 0.7-0.7q3.8 0 7.6 0c0.6-0.1 0.6 0.2 0.6 0.6c0 0.4 0.1 0.8-0.6 0.7c-0.5 0-1.2-0.2-1.4 0.1c-0.3 0.3-0.1 1-0.1 1.5v13.1c0 0.9-0.1 1.7-0.4 2.6c-0.7 1.8-2.2 2.5-4 2.7q-0.6 0-1.2 0q-0.6 0-1.2 0q-0.6-0.1-1.1-0.2q-0.6-0.1-1.2-0.3c-0.3-0.2-0.5-0.3-0.4-0.7q0-0.2 0-0.5q0-0.2 0-0.4q0-0.2 0-0.4q0-0.2 0-0.5c-0.1-0.3 0-0.4 0.4-0.4q0.2 0.1 0.5 0c0.4 0 0.5 0.1 0.6 0.5c0.1 0.8 0.4 1.4 1.3 1.6c1 0.2 1.8-0.3 2.1-1.4c0.2-0.9 0.2-1.8 0.2-2.8q0-3.2 0-6.4zm20.6 3.6c-0.4 1.9-1.5 3.1-3.3 3.6q-0.6 0.2-1.2 0.2q-0.7 0.1-1.3 0.1q-0.6 0-1.3 0q-0.6-0.1-1.2-0.3c-2.1-0.6-3.3-1.9-3.8-4q-0.1-0.5-0.2-1q0-0.5 0-1q0-0.5 0.1-1q0-0.5 0.2-1c0.6-2.3 2.5-3.9 5-4.1c0.8-0.1 1.7-0.1 2.5 0.1c2.6 0.4 4.1 2.1 4.6 4.8c0.3 1.8 0.3 1.8-1.5 1.8q-3 0-5.9 0c-0.5 0-0.6 0.2-0.6 0.6c0.1 0.5 0.1 1.1 0.2 1.6c0.3 1.4 1.1 2.1 2.5 2.2c1.6 0.1 2.7-0.5 3.1-1.9c0.2-0.6 0.5-0.8 1.1-0.7q0.5 0 1 0zm-5.9-3.1q0.7 0 1.5 0c0.2 0 0.4 0 0.4-0.3c-0.1-0.9-0.1-1.8-0.4-2.7q-0.4-1.2-1.6-1.2q-1.2 0-1.6 1.3q0 0.1 0 0.2q-0.1 0.2-0.1 0.3q0 0.2-0.1 0.3q0 0.1 0 0.3c0 0.6-0.3 1.3 0 1.7c0.3 0.4 1.1 0.1 1.7 0.1q0 0 0.2 0zm71.7-5.5c1.5 0 2.9 0.3 4.4 0.6c0.3 0.1 0.4 0.2 0.4 0.5c0 0.8 0 1.5 0 2.2c0 0.3 0 0.5-0.3 0.4c-0.3-0.1-0.9 0.3-1-0.3c-0.2-1.2-1-2-2.6-2.1c-0.7-0.1-1.4 0-2.1 0.3q-0.2 0.1-0.3 0.2q-0.2 0.1-0.3 0.2q-0.1 0.2-0.1 0.4q-0.1 0.2-0.1 0.4q0 0.8 0.8 1.2c0.8 0.4 1.7 0.5 2.5 0.7c0.9 0.3 1.7 0.5 2.4 0.9c1.2 0.7 1.7 1.7 1.7 3c0 1.3-0.5 2.4-1.7 3.1c-0.9 0.5-1.9 0.7-2.9 0.8c-2 0.1-4-0.1-5.9-0.6c-0.3 0-0.4-0.2-0.4-0.4q0-1.3 0-2.6c0-0.2 0-0.4 0.3-0.4c0.4 0.1 0.8-0.3 1 0.3c0.8 2.1 2.5 3 4.6 2.3q1.1-0.4 1.1-1.4c0.1-0.8-0.2-1.2-0.9-1.5c-0.8-0.4-1.7-0.5-2.6-0.7q-0.6-0.2-1.2-0.4c-2-0.8-2.8-2.4-2.2-4.5c0.4-1.2 1.3-1.9 2.5-2.2c1-0.3 1.9-0.4 2.9-0.4zm-25.5 5.6c0 1.6 0 3.1 0 4.7c0 0.5 0.1 0.6 0.6 0.5q0.1 0 0.2 0c0.9 0 1.1 0.3 0.9 1.2c0 0.2-0.2 0.2-0.4 0.2q-3.3 0-6.6 0c-0.3 0-0.3-0.1-0.4-0.4c0-1-0.1-1 0.9-0.9c0.7 0 0.9-0.2 0.8-0.8q0-3.9 0-7.8c0-0.5-0.1-0.7-0.5-0.6c-0.2 0-0.4 0-0.6 0c-0.5 0.1-0.6-0.2-0.6-0.6c0-0.7 0.2-0.8 0.8-0.8q0.5 0 1.1 0.1q0.5 0 1.1 0q0.5 0 1.1 0q0.5-0.1 1.1-0.1c0.4 0 0.5 0.1 0.5 0.6q0 2.4 0 4.7zm-2.2-10.7q0.2 0 0.4 0q0.3 0.1 0.4 0.1q0.2 0.1 0.4 0.2q0.2 0.2 0.3 0.3q0.3 0.2 0.4 0.5q0.1 0.3 0.2 0.6q0.1 0.3 0 0.6q0 0.3-0.1 0.6q-0.1 0.3-0.3 0.6q-0.2 0.2-0.5 0.4q-0.3 0.1-0.6 0.2q-0.3 0.1-0.6 0.1q-0.2 0-0.4 0q-0.2-0.1-0.4-0.2q-0.2 0-0.4-0.2q-0.1-0.1-0.3-0.2q-0.3-0.3-0.5-0.7q-0.1-0.4-0.1-0.8q0-0.4 0.2-0.8q0.1-0.4 0.4-0.7q0.2-0.2 0.4-0.3q0.1-0.1 0.3-0.2q0.2 0 0.4-0.1q0.2 0 0.4 0z" />
			<path id="Layer" class="s0" d="m25.6 51.2c-0.2 0.3-0.5 0.2-0.7 0.2q-1 0.1-1.9 0.1q-1 0.1-2 0.1q-1 0.1-2 0.2q-0.9 0.1-1.9 0.3c-0.9 0.1-1.1 0-1.1-1q0-0.4 0-0.9q0-0.5 0-1q0-0.5 0.1-1q0-0.4 0-0.9q0-0.1 0-0.1q0-0.1 0-0.1q0-0.1 0-0.2q0 0 0-0.1c0-0.2 0-0.4-0.2-0.4c-0.3-0.1-0.3 0.2-0.4 0.4c-0.3 0.9 0 1.8 0.1 2.7q0.1 0.9-0.1 1.9c-0.1 0.4-0.3 0.5-0.6 0.2q-0.3-0.2-0.6-0.4c-0.2-0.1-0.3-0.2-0.5 0c-0.1 0.1 0 0.3 0 0.4c0.4 0.7 0.4 0.7-0.4 1c-0.2 0.1-0.4 0.2-0.4 0.5c0 0.3 0.3 0.1 0.5 0.1q0.9 0.1 1.7 0c0.4 0 0.5 0.2 0.6 0.6q0.3 3 0.7 6q0 0.2 0 0.5c0.1 0.5-0.1 0.6-0.6 0.5c-2.1-0.3-3.8-1.3-5.6-2.1c-1.3-0.5-1.5-1.4-1.6-2.5c-0.1-4-0.8-7.8-2.1-11.6q-0.1-0.1-0.2-0.3q0-0.2-0.1-0.3q-0.1-0.2-0.1-0.4q-0.1-0.2-0.2-0.3c-0.2-0.4-0.1-0.7 0.2-0.9c2-1.5 4.1-3 6.4-4c0.4-0.2 0.7-0.2 0.9 0.2c1.2 1.8 3 2.6 4.9 3.5c0.4 0.1 0.6 0.4 0.7 0.8c0.2 1 0.5 1.9 0.8 2.9c0.3 1.1 0.6 1.3 1.8 1.3c-0.1 0.3-0.3 0.5-0.5 0.8c-0.4 0.6-0.3 1 0.3 1.4c1.2 0.5 2.3 1.1 3.5 1.6c0 0 0.6 0.3 0.6 0.3zm4.2 0q0.7-1.2 1.4-2.4q0.2-0.4 0.5-0.8q0.3-0.4 0.5-0.9q0.3-0.4 0.5-0.8q0.3-0.4 0.5-0.8c0.2-0.3 0.2-0.5 0-0.7c-0.4-0.4-0.6-0.8-0.4-1.4q0.2-0.4 0.2-0.9q0.1-0.5 0.1-1q0-0.5-0.1-1q-0.1-0.5-0.3-0.9c-0.1-0.6-0.5-1.1-1.1-1.3c-0.4-0.1-0.3-0.3-0.1-0.5q0.4-0.2 0.7-0.5c0.2-0.2 0.3-0.1 0.4 0q0.4 0.4 0.8 0.8q0.4 0.3 0.8 0.7q0.4 0.3 0.8 0.7q0.4 0.3 0.8 0.7c0.5 0.4 0.6 0.9 0.4 1.4c-0.6 2.9-1.5 5.6-2.6 8.3c-0.4 0.9-1 1.2-1.8 1.3c-0.7 0-1.3-0.1-2 0z" />
			<path id="Layer" class="s1" d="m24.2 42.4c0.4 0.1 0.7 0.2 1 0.3c0.4 0.1 0.6 0.7 0.3 1c-1.3 1.1-2.6 2.1-4.3 2.4c-0.3 0.1-0.5 0-0.6-0.3c-0.5-1.3-1-2.6-1-4.1c0.1-1.9 0.5-2.2 2.3-1.7c1.2 0.4 2.2 1.2 3.4 1.6c0.1 0 0.2 0.1 0.2 0.2q0 0 0 0.1q0 0-0.1 0.1q0 0 0 0q-0.1 0-0.1 0c-0.3 0.1-0.6 0.2-1.1 0.4z" />
			<path id="Layer" class="s0" d="m13.9 18c0.4 0.9 0.1 1.8 0 2.6c-0.2 1.5-0.4 3 0.1 4.5q0 0 0 0.1q0.1 0 0.1 0.1q0 0.1 0 0.1q0 0.1 0 0.1c0 0.2-0.1 0.4-0.4 0.4c-0.2 0.1-0.1-0.2-0.2-0.3c-0.2-1.4-1.9-2.5-3.3-2.1q-0.4 0.1-0.7 0.2q0-0.2 0-0.4c-0.5-2.8 1.5-5.2 4.4-5.3z" />
			<path id="Layer" class="s1" d="m29.5 41.8q-0.1 0-0.3-0.1q-0.1 0-0.2 0q-0.1 0-0.3 0q-0.1-0.1-0.2 0c-0.3 0-0.3-0.2-0.3-0.4c-0.1-0.1-0.2-0.3 0-0.4c0.8-0.5 1.5-1.1 2.4-1.4c0.7-0.2 1.2 0 1.4 0.8q0.1 0.3 0.1 0.6q0.1 0.3 0.1 0.7q0.1 0.3 0.1 0.6q0 0.4-0.1 0.7c0 0.8-0.2 0.9-0.9 0.8q-0.3 0-0.6 0q-0.3 0-0.6-0.1q-0.3 0-0.6-0.1q-0.3 0-0.5-0.1c-0.5 0-0.7-0.1-0.7-0.6c0-0.5 0.1-0.8 0.6-0.9c0.2 0 0.3 0 0.6-0.1z" />
			<path id="Layer" class="s0" d="m31.2 58.3c0.1 0.5-0.1 0.7-0.5 0.7q-0.1 0-0.2 0q0 0-0.1 0q-0.1 0-0.1 0.1q-0.1 0-0.2 0c-1 0.2-1 0.3-1.1-0.9c-0.1-1.6-0.2-3.2-0.2-4.8c0-0.5 0.2-0.7 0.7-0.7q0.3 0 0.5 0c0.4-0.2 0.6 0 0.7 0.4q0.1 0.9 0.2 1.8q0.2 1.7 0.3 3.4zm-18.6-41.9c0.9-1.2 2.1-2.2 3.6-2.6c-0.6 0.6-1.1 1.3-1.5 2c-0.5 0.9-1.3 0.6-2.1 0.6z" />
			<path id="Layer" class="s0" d="m26.1 42.2c-0.1-0.6 0.2-0.8 0.7-0.8c0.5 0 0.7 0.3 0.8 0.8c0 0.6-0.3 1-0.8 0.9c-0.8 0-0.5-0.6-0.7-0.9z" />
			<path id="Layer" class="s0" d="m26.7 29q0.1 0.2 0.2 0.4c0.3 1 0.5 1.1 1.6 1c1.1-0.1 2.1-0.7 3.1-1.2c0.5-0.2 0.5-1 0.1-1.5c-0.5-0.6-1-1.2-1.5-1.8c-0.9-1.1-1.6-2.2-1.8-3.6q0-0.2 0-0.3c0-0.1 0-0.3 0.1-0.4c0.2 0 0.3 0.1 0.4 0.3c0.6 2 2.1 3.4 3.4 5q0.1 0 0.1 0.1c0.8 0.7 0.9 1.3 0.3 2.3q0 0 0 0q0 0.1 0 0.1q-0.1 0-0.1 0q0 0.1 0 0.1c-1.5 0.9-3 1.7-4.8 1.7c-1.1 0-1.6-0.7-1.3-1.7q0-0.1 0-0.1q0-0.1 0.1-0.1q0-0.1 0.1-0.2q0 0 0-0.1zm3.5 5.5c-0.2 0.5-0.5 0.8-1 0.9q-0.4 0.2-0.8 0.2q-0.4 0.1-0.8 0.1q-0.4 0-0.8 0q-0.4 0-0.8-0.1q-0.2 0-0.5-0.1q-0.3-0.1-0.5-0.2q-0.2-0.1-0.5-0.3q-0.2-0.2-0.3-0.4c-0.4-0.5-0.7-1.1-1.2-1.5c-0.1-0.1-0.3-0.3-0.1-0.4c0.2-0.2 0.4-0.2 0.6 0.1c0.7 1.4 2.1 1.7 3.5 1.7c1.1 0.1 2.1 0 3.2 0zm-6.6-3.2c1.8 0.6 3.4 0.7 5.1 0.6c0.7 0 0.6 0.4 0.7 0.9c0.1 0.6-0.3 0.6-0.7 0.6c-1.2-0.1-2.4-0.2-3.5-0.7c-0.6-0.3-1.2-0.6-1.6-1.4zm0.3-10.4c0.4 1 0.8 2 1.6 2.7c0.5 0.5 0.2 1.4-0.7 1.6q-0.3 0.1-0.5 0.2q-0.3 0-0.6 0q-0.3 0-0.6-0.1q-0.3 0-0.6-0.1c-0.3-0.2-0.5-0.4-0.4-0.8c0.1-0.5 0.4-0.3 0.7-0.2c0.5 0 0.9 0.2 1.4 0.1c0.5-0.1 0.7-0.2 0.4-0.7q-0.2-0.3-0.3-0.5q-0.2-0.3-0.3-0.6q-0.1-0.2-0.1-0.5q-0.1-0.3-0.2-0.6c0-0.1 0-0.3 0.2-0.5zm-2-2.7c-1.4 0-2.2 0.8-2.9 1.9c-0.1 0.2-0.1 0.6-0.4 0.4c-0.3-0.1-0.2-0.4-0.2-0.7c0.4-1.4 1.3-2.2 2.6-2.7q0.5-0.2 0.9 0c0.5 0.1 0.9 0.4 0.8 0.9c0 0.5-0.5 0.1-0.8 0.2zm11.3 2.5c0.6 1 0.9 2 1.5 2.9c0.1 0.1 0 0.2-0.1 0.4c-0.4 0.5-1.6 0.9-2.2 0.7q-0.1 0-0.2 0q-0.1 0-0.1-0.1q-0.1-0.1-0.2-0.1q0-0.1-0.1-0.2c-0.2-0.3-0.1-0.6 0.3-0.6q0.7-0.1 1.3-0.1c0.4-0.1 0.4-0.2 0.3-0.5c-0.3-0.7-0.6-1.4-0.5-2.4zm0.4 9.9c-0.6 1.3-1.6 2.3-3.1 2.6c-0.2 0-0.6 0.3-0.6-0.2c0-0.4-0.4-1.1 0.4-1.2c0.8-0.1 1.5-0.5 2.2-0.8c0.4-0.2 0.7-0.4 1-0.5q0.1 0 0.1 0.1zm-24.2-3.8q0.3-1.4 1.5-1.2c1 0.2 1.7 1.3 1.4 2.6c-0.3-0.2-0.4-0.6-0.6-0.9c-0.1-0.3-0.2-0.5-0.6-0.5c-0.3 0-0.4 0.4-0.5 0.7c0 0.5 0 1.1-0.1 1.8c-0.5-0.8-0.5-1.5-0.4-2.2c0-0.3 0.3-0.5 0-0.7c-0.2-0.1-0.4 0.2-0.7 0.4z" />
			<path id="Layer" class="s0" d="m33.5 30.5l0.1-0.1q0.1 0.1 0 0.2zm1.7 22.9c0.8-1 1.9-1.2 2.9-1.3c-0.9 0.4-1.6 1.2-2.9 1.3zm0.7 2.1c1.1-0.6 2.2-0.2 3.2 0.1c-1 0.1-2.1 0-3.2-0.1zm0.1-1.4c0.9-0.6 1.9-0.4 3-0.2c-1.1 0.2-2.1 0.3-3 0.2zm-8.1-6.5q0 0 0 0q0 0 0 0q0 0 0 0q0 0 0-0.1q0-0.1 0.1-0.3c0.1-0.2 0.3-0.4 0.5-0.2c0.3 0.1 0.4 0.2 0.3 0.5q0 0.1-0.1 0.1q0 0.1-0.1 0.1q-0.1 0.1-0.2 0.1q0 0-0.1 0q-0.1 0-0.1-0.1q-0.1 0-0.1 0q0 0-0.1 0q0 0-0.1-0.1zm0.5-2.3c-0.1 0.2-0.1 0.4-0.4 0.4q-0.4 0.1-0.5-0.3q0-0.4 0.4-0.5c0.3 0 0.4 0.2 0.5 0.4z" />
		</g>
	</g>
</svg>