<svg version="1.2" xmlns="http://www.w3.org/2000/svg" viewBox="0 0 115 80" width="115" height="80">
	<title>rest-svg</title>
	<defs>
		<clipPath clipPathUnits="userSpaceOnUse" id="cp1">
			<path d="m0 0h115v80h-115z" />
		</clipPath>
	</defs>
	<style>
		.s0 { fill: #6b8e23 } 
	</style>
	<g id="Clip-Path" clip-path="url(#cp1)">
		<g id="Layer">
			<path id="Layer" fill-rule="evenodd" class="s0" d="m29.7 40.5c1.3 1.2 2.2 2.8 3.3 4.2q1.2 1.5 2.2 3q0.1 0.3 0.3 0.6q0.3 0.2 0.5 0.4q0.3 0.2 0.6 0.3q0.3 0.1 0.7 0.1c0.9 0.1 1.5 1.2 1.1 2.1c-0.2 0.3-0.4 0.2-0.6 0.2q-0.3 0-0.7 0q-0.4 0-0.8 0q-0.3 0-0.7 0q-0.4 0-0.8 0c-0.6 0-1-0.3-1.3-0.8c-2.1-2.9-4.3-5.8-6.4-8.8c-0.5-0.7-1-0.9-1.8-0.9c-2.1 0.1-2.1 0-2.1 2.1c0 1.7 0 3.4 0 5.1c0 0.6 0.2 0.8 0.7 0.8q0.3 0.1 0.6 0.2c1 0.2 1.5 1.1 1.1 2c-0.1 0.3-0.2 0.3-0.4 0.3h-7.5q0 0-0.1 0q0 0-0.1 0q0-0.1 0-0.1q-0.1 0-0.1 0c-0.5-0.6 0.1-2 0.7-2.2c1.8-0.5 1.8-0.5 1.8-2.3q-0.1-8.5 0-17c0-0.7-0.2-1-0.9-1q-0.1 0-0.2-0.1q0 0-0.1 0q-0.1 0-0.2 0q-0.1 0-0.2-0.1c-0.8-0.1-1.4-1.4-1-2.1c0.2-0.2 0.4-0.2 0.6-0.2c3.2 0 6.5 0 9.7 0c1.5 0.1 2.9 0.4 4.3 1c3.1 1.3 4.3 4.5 3.5 7.7c-0.7 2.8-2.6 4.5-5.3 5.3q0 0-0.1 0q0 0-0.1 0q0 0 0 0q-0.1 0.1-0.1 0.1q0 0-0.1 0.1zm-6.5-6.8v3.2c0 1.6 0 1.6 1.6 1.6c1.7 0 3.5 0 5.1-0.9c1.8-0.9 2.6-2.8 2.3-5.2c-0.3-1.6-1.6-2.8-3.5-3.1c-1.7-0.3-3.4-0.1-5-0.2c-0.5 0-0.5 0.3-0.5 0.6q0 2 0 4zm26.1 17.7q-4 0-8 0c-0.3 0-0.9 0.3-0.8-0.4c0-0.6-0.4-1.4 0.5-1.7q0-0.1 0.1-0.1q0 0 0 0q0.1 0 0.1 0q0.1 0 0.1-0.1c1.7-0.4 1.7-0.4 1.7-2.1c0-5.7 0-11.4 0-17.1c0-0.8-0.3-1.1-1-1.1q0 0-0.1 0q0 0-0.1 0q-0.1-0.1-0.1-0.1q-0.1 0-0.2 0c-1-0.2-1.4-1-1-2c0.1-0.3 0.3-0.3 0.5-0.3q1.4 0 2.8 0c4.5 0 9 0.1 13.5 0c0.8 0 1 0.3 0.9 1q0 0.5 0 1.1q0 0.5 0 1q0 0.6 0 1.1q0 0.5 0 1.1c0.1 0.6-0.2 0.9-0.8 0.8q-0.1 0-0.2 0q-0.1 0-0.1 0q-0.1 0-0.2 0q-0.1 0-0.2 0c-0.6 0-0.9-0.3-0.9-0.9c0-0.6-0.1-1.3-0.2-1.9c0-0.4-0.1-0.6-0.5-0.6q-4.1 0.1-8.1 0c-0.6 0-0.7 0.3-0.6 0.7q0 3.5 0 7c-0.1 0.6 0.2 0.6 0.7 0.6c2.5 0 5 0 7.5 0c0.6 0 0.9 0.1 0.9 0.9c-0.1 1.8 0 1.8-1.8 1.8c-2.2 0-4.4 0-6.6 0c-0.5 0-0.8 0.1-0.8 0.8q0.1 3.5 0 6.9c0 0.6 0.2 0.8 0.8 0.8q3.9 0 7.8 0c0.5 0 0.8-0.1 0.7-0.7q0-0.4 0.1-0.8c0.1-0.5-0.2-1.1 0.4-1.4c0.5-0.2 1.2-0.1 1.8-0.1c0.3 0 0.3 0.2 0.3 0.5q0 2.4 0 4.9c0 0.6-0.4 0.4-0.7 0.4q-4.1 0-8.2 0zm11.5-4.2q0-1.3 0-2.6c-0.1-0.4 0.1-0.6 0.6-0.6q0.4 0.1 0.8 0c0.7 0 1 0.3 1 1c0.1 0.8 0.2 1.5 0.2 2.2c0 0.4 0 0.7 0.4 0.8c2.1 0.7 4.2 1.2 6.4 0.5q0.3-0.1 0.6-0.3q0.2-0.1 0.5-0.3q0.2-0.1 0.4-0.3q0.2-0.2 0.4-0.5c0.5-0.6 0.8-1.3 0.9-2.1c0.2-1.9-0.3-3-2-3.9c-1.7-1-3.7-1.3-5.5-2c-2.4-1-4-2.6-4.2-5.4q-0.3-4.4 3.5-6.6c2.2-1.3 4.6-1.1 7-0.7q0.4 0 0.8 0.1q0.5 0.1 0.9 0.2q0.4 0.1 0.8 0.3q0.4 0.1 0.8 0.3c0.5 0.1 0.6 0.3 0.6 0.8q0 2.3 0 4.6c0 0.5-0.1 0.6-0.6 0.6q-0.1 0-0.2 0q-0.1 0-0.2 0q-0.1 0-0.2 0q-0.1 0-0.2 0c-0.7 0-1-0.3-1-1c-0.1-0.3-0.1-0.6-0.1-0.9c-0.2-2.4 0.2-1.7-2.1-2.3c-1.4-0.3-2.8-0.4-4.2 0.2c-1.3 0.5-2.1 1.3-2.4 2.7q-0.4 2.1 1.2 3.3q0.3 0.2 0.6 0.4q0.3 0.2 0.6 0.3q0.3 0.2 0.6 0.3q0.3 0.1 0.7 0.2q1.9 0.7 3.8 1.4c3.3 1.3 4.8 4.1 4.1 7.6c-0.8 4-4.1 6.1-7.6 6.1q-0.9 0-1.8 0q-0.9-0.1-1.8-0.2q-0.9-0.1-1.8-0.4q-0.8-0.2-1.7-0.5c-0.4-0.1-0.6-0.3-0.6-0.8q0-1.3 0-2.5zm27.2-20.8q4.7 0.1 9.4 0c0.6 0 0.7 0.2 0.7 0.8q0 0.5 0 1q0 0.5 0 1q0 0.5 0 1q0 0.5 0 1c0 0.6-0.2 0.8-0.7 0.7q-0.1 0-0.2 0q-0.1 0-0.2 0q-0.1 0-0.2 0q-0.1 0-0.2 0c-0.6 0.1-0.9-0.2-0.9-0.8c-0.3-1.8-0.3-1.8-2.2-1.8q-1.6 0-3.2 0c-0.5 0-0.6 0.1-0.6 0.6q0 9.2 0 18.4c0 0.4 0.1 0.6 0.5 0.6c0.4 0.1 0.8 0.2 1.1 0.2c0.6 0.1 0.8 0.5 0.9 1c0.1 1.3 0.1 1.3-1.2 1.3q-3.2 0-6.4 0c-0.3 0-0.9 0.3-0.8-0.4c0-0.7-0.4-1.5 0.5-1.8q0.1 0 0.2-0.1c1.8-0.3 1.8-0.3 1.8-2.1q0-8.4 0-16.8c0-0.7-0.1-1-0.8-0.9q-0.6 0-1.1 0q-0.5 0-1.1 0q-0.5 0-1.1 0q-0.5 0-1 0c-0.6 0-0.8 0.1-0.9 0.7q0.1 0.1 0 0.2c-0.1 1.8-0.1 1.8-1.9 1.8c-0.5 0-0.7-0.2-0.7-0.8q0.1-2 0-4c0-0.6 0.2-0.8 0.8-0.8q4.7 0.1 9.5 0zm-85.3 12.6c1.1 0.6 2 1.4 2.3 2.7c0.2 1.3-0.1 2.7-0.3 4c-0.2 1.2-0.4 2.4-0.5 3.6c0 1.9 0.9 3.6 3 3.5c0.8-0.1 1.4 1.3 0.9 1.9c0 0.2-0.2 0.2-0.3 0.2c-4 0.3-6.7-2.5-6.3-6.4c0.3-2 0.8-3.9 0.8-5.9c0-1.5-0.4-2.1-1.8-2.6c-0.8-0.2-0.4-0.8-0.5-1.3c0-0.3 0-0.7 0.5-0.7c1.1-0.1 1.8-1.3 1.8-2.3c0-1.6-0.3-3.1-0.6-4.6c-0.3-1.7-0.5-3.4 0.3-5c1.1-2.5 3.4-3.1 5.8-3q0 0 0.1 0q0 0 0.1 0.1q0 0 0 0q0.1 0 0.1 0.1q0 0 0.1 0q0 0.1 0 0.1q0 0.1 0 0.1q0 0 0 0.1c-0.1 0.5 0.2 1.2-0.5 1.5q-0.4 0.1-0.8 0.2q-2.4 0.1-2.6 2.6c-0.2 1.8 0.3 3.6 0.5 5.4c0.2 1.2 0.5 2.5-0.1 3.8c-0.4 0.9-1.1 1.4-2 1.9zm109.6 0c-2.1-1.2-2.7-2.6-2.3-5.1c0.3-1.8 0.7-3.6 0.8-5.3c0-1.6-0.6-3.4-2.9-3.5c-0.4 0-0.8 0-1-0.4q0-0.2-0.1-0.4q0-0.2 0-0.4q0-0.2 0-0.4q0-0.2 0.1-0.4c0-0.1 0.3-0.1 0.5-0.1c3.8-0.1 6.3 2 6.1 6c-0.1 1.8-0.6 3.6-0.8 5.3c-0.1 0.7-0.1 1.4 0 2c0.2 0.9 0.7 1.5 1.6 1.6c0.6 0.1 0.8 0.4 0.7 0.9c-0.1 0.5 0.2 1.1-0.7 1.2c-1.2 0.2-1.8 1.2-1.7 2.6c0 1.4 0.3 2.8 0.6 4.2c0.2 1.5 0.4 3-0.1 4.5c-0.6 2.1-2.1 3.1-4.1 3.4c-0.3 0.1-0.5 0.1-0.8 0.1c-1.4 0.2-1.5 0.2-1.4-1.2c0-0.6 0.4-0.8 0.8-0.8c2.5-0.4 3.2-1.4 3.1-3.9c-0.1-2-0.6-3.8-0.8-5.8c-0.1-1.9 0.6-3.3 2.4-4.1z" />
		</g>
	</g>
</svg>