<svg version="1.2" xmlns="http://www.w3.org/2000/svg" viewBox="0 0 124 80" width="124" height="80">
	<title>spring_boot-svg</title>
	<defs>
		<clipPath clipPathUnits="userSpaceOnUse" id="cp1">
			<path d="m0 0h124v80h-124z" />
		</clipPath>
	</defs>
	<style>
		.s0 { fill: #6b8e23 } 
	</style>
	<g id="Clip-Path" clip-path="url(#cp1)">
		<g id="Layer">
			<path id="Layer" fill-rule="evenodd" class="s0" d="m22.6 63c-2.8 0-5.6 0-8.4 0c-2.1 0-3.8-0.9-4.9-2.8c-2.8-4.9-5.6-9.8-8.4-14.7c-1.2-2-1.2-4 0-6q4.2-7.4 8.4-14.7c1.1-1.9 2.8-2.8 4.9-2.8q2.1 0 4.2 0q2.1 0 4.2 0q2.1 0 4.2 0q2.1 0 4.2 0c2.2 0 3.8 0.9 4.9 2.8q4.2 7.3 8.4 14.6c1.2 2.1 1.2 4.1 0 6.1q-4.2 7.3-8.3 14.6c-1.1 2-2.9 2.9-5.1 2.9q-4.2 0-8.3 0zm-0.2-8.8q1.6 0 3.2-0.4q1.6-0.4 3-1.2q1.4-0.8 2.6-2q1.1-1.1 1.9-2.5c2.5-4.1 2.4-8.4 0.2-12.6q-0.3-0.6-0.7-1.1q-0.3-0.5-0.8-1q-0.4-0.5-0.9-1q-0.5-0.4-1-0.8c-0.8-0.6-1.7-0.4-2.2 0.3c-0.5 0.7-0.4 1.6 0.2 2.2c0.2 0.2 0.5 0.4 0.7 0.6q1 0.9 1.8 2.1q0.7 1.2 1 2.6q0.4 1.4 0.3 2.8q-0.1 1.4-0.6 2.7c-0.4 1.3-1.2 2.5-2.2 3.5c-1 1-2.3 1.7-3.6 2.1c-1.4 0.4-2.8 0.6-4.2 0.3c-1.4-0.2-2.7-0.7-3.8-1.5q-0.6-0.4-1.1-0.9q-0.5-0.5-0.9-1q-0.5-0.6-0.8-1.2q-0.3-0.6-0.6-1.3c-1.4-3.7-0.3-7.8 2.8-10.4c1-0.9 1.2-1.9 0.6-2.6q-1-1.2-2.6 0.1q-1.5 1.2-2.6 2.8q-1 1.6-1.5 3.5q-0.5 1.8-0.5 3.8q0.1 1.9 0.7 3.7q0.6 1.8 1.8 3.3q1.1 1.6 2.7 2.7q1.5 1.1 3.4 1.7q1.8 0.6 3.7 0.7q0 0 0 0zm2-23.2c0-1.3-0.8-2.2-1.9-2.2c-1 0-1.8 0.8-1.8 2.1q0 5.3 0 10.5c0 1.3 0.8 2.1 1.9 2.1c1 0 1.8-0.9 1.8-2.2q0-2.6 0-5.2zm96-6.2c-0.2-1.3 0-2.2 1.1-2.6q0.4-0.1 0.7-0.1q0.3 0 0.6 0.2q0.3 0.1 0.5 0.3q0.3 0.2 0.4 0.5q0.2 0.4 0.2 0.8c0 4.1 0.3 8.2-0.1 12.2c-0.4 4-2.5 6.1-6.6 6.6q-0.9 0.1-1.9 0.1q-1 0-1.9-0.2q-1-0.1-1.9-0.4q-1-0.3-1.8-0.7c-1.1-0.5-1.5-1.3-1.1-2.2c0.4-0.8 1.3-1.1 2.3-0.5q0.6 0.3 1.3 0.5q0.6 0.2 1.3 0.4q0.6 0.1 1.3 0.1q0.7 0.1 1.4 0c2.3-0.2 3.9-1.7 3.9-3.9c-1.4 1.6-3.1 2.4-5.2 2.4c-3.6 0-6.5-2.7-7-6.5c-0.3-1.9-0.1-3.8 0.7-5.6c2.1-4.6 8.3-5.6 11.3-1.8q0.2 0.2 0.5 0.4zm-9 5.4c0 2.6 1.6 4.7 3.9 4.9c2.7 0.3 4.9-1.6 5.1-4.4c0.2-3-1.7-5.4-4.4-5.5c-2.5-0.1-4.5 2.1-4.6 5q0 0 0 0zm-48.8 5.7c0 1.8 0 3.3 0 4.9c0 1.3-0.7 2.1-1.8 2.1c-1.1 0-1.8-0.8-1.8-2.2v-16.2c0-1.5 0.5-2.3 1.7-2.3q1.7-0.1 1.9 2.2q0.1 0.2 0.2 0.4q0.4-0.6 0.9-1.1c2.8-2.4 7-2 9.6 0.9c2.7 3.1 2.5 8.9-0.5 11.8q-1 0.9-2.2 1.4q-1.2 0.5-2.6 0.5q-1.3 0-2.5-0.5q-1.3-0.5-2.2-1.4q-0.1-0.1-0.2-0.1q-0.1-0.1-0.2-0.2q0 0-0.1-0.1q-0.1-0.1-0.2-0.1zm4.4-0.7c2.7 0 4.5-2.1 4.5-5c0-2.8-2-4.9-4.4-5c-2.5 0-4.6 2.2-4.6 5c-0.1 2.8 1.9 5 4.5 5zm29.2-10.8c1.7-2 3.7-2.5 6-2.1c2.3 0.5 3.9 2 4.1 4.4c0.4 3.3 0.2 6.6 0.1 10c0 1-0.8 1.6-1.8 1.6c-1 0-1.7-0.7-1.8-1.9c0-2.1 0-4.3 0-6.4q0-0.7 0-1.4c-0.2-1.9-1.3-3-3.1-3.1c-2 0-3.4 1.1-3.5 3c-0.2 2.2-0.1 4.3-0.1 6.5c0 0.5 0 1-0.1 1.6c-0.1 1.1-0.8 1.7-1.8 1.7c-1.1 0-1.7-0.7-1.8-1.9c0-1.2 0-2.4 0-3.6v-8c0-1.6 0.5-2.4 1.5-2.6c1.1-0.2 1.8 0.4 2.3 2.2zm-46.3 27.1c0.9-0.6 1.7-1.1 2.7-1.2c2.5-0.3 4.6 0.8 5.5 3.2c0.9 2.3 0.8 4.6-0.4 6.8c-1.3 2.7-4.7 3.5-7.2 1.8c-0.4-0.3-0.7-0.5-1 0.1c-0.4 0.7-1.1 0.9-1.8 0.8c-0.8-0.2-1.2-0.7-1.3-1.5q0-0.1 0-0.2q0-0.1-0.1-0.3q0-0.1 0-0.2q0-0.2 0-0.3v-11.9q0-0.1 0-0.2q0-0.2 0-0.3q0.1-0.1 0.1-0.2q0-0.2 0-0.3c0.2-1.1 0.9-1.6 1.8-1.6c0.9 0.1 1.6 0.7 1.6 1.8c0.1 1.1 0.1 2.3 0.1 3.7zm5.1 5.1q0-0.3 0-0.5q0-0.2 0-0.4q-0.1-0.3-0.1-0.5q-0.1-0.2-0.2-0.4c-0.3-0.9-0.8-1.6-1.9-1.7c-1.1-0.1-1.9 0.4-2.4 1.4q-0.2 0.5-0.3 1q-0.1 0.5-0.1 1q0 0.5 0.1 1q0 0.5 0.2 1c0.4 0.9 1.1 1.4 2.1 1.5c1.1 0 1.7-0.6 2.2-1.4c0.3-0.6 0.4-1.3 0.4-2zm-2.8-18.3c-2.4 0-4.3-0.6-6-1.7c-1-0.6-1.2-1.4-0.7-2.2c0.4-0.7 1.3-0.9 2.2-0.3c1.4 0.8 2.8 1.4 4.4 1.3q0.2 0 0.3 0q0.2 0 0.4 0q0.2-0.1 0.3-0.1q0.2-0.1 0.3-0.2c1.2-0.5 1.3-1.8 0.2-2.5c-0.9-0.5-1.9-0.8-2.9-1q-0.2-0.1-0.5-0.2q-0.3-0.1-0.6-0.2q-0.3-0.1-0.6-0.2q-0.3-0.2-0.5-0.3c-1.4-0.7-2.4-1.7-2.5-3.4c-0.1-1.9 0.6-3.3 2.2-4.3c2.7-1.6 6.5-0.6 8.4 0.6c0.8 0.4 1 1.2 0.6 1.9c-0.4 0.8-1.2 0.9-1.9 0.7c-0.8-0.3-1.5-0.7-2.3-0.9q-0.3-0.1-0.6-0.2q-0.3 0-0.7 0q-0.3 0-0.6 0q-0.3 0-0.6 0.1q-0.2 0.1-0.4 0.2q-0.2 0.1-0.4 0.2q-0.1 0.2-0.2 0.4q-0.1 0.2-0.2 0.4c-0.1 0.6 0.3 1 0.8 1.3c0.8 0.6 1.8 0.8 2.7 1.1q1.2 0.4 2.4 0.9c1.5 0.8 2.5 2 2.5 3.7c0 1.9-0.8 3.4-2.5 4.2q-0.4 0.2-0.7 0.3q-0.4 0.2-0.8 0.3q-0.4 0-0.8 0.1q-0.4 0-0.7 0zm20.4 18.4c0 3.8-2.5 6.4-6.2 6.3c-3.8 0-6.3-2.6-6.3-6.4c0.1-3.8 2.6-6.4 6.4-6.3c3.7 0 6.2 2.6 6.1 6.4zm-3.6-0.1q0-0.2 0-0.5q0-0.3-0.1-0.5q0-0.3-0.1-0.5q-0.1-0.3-0.2-0.5c-0.4-1-1.2-1.6-2.3-1.5c-1.1 0-1.8 0.6-2.1 1.6q-0.2 0.4-0.3 0.9q-0.1 0.5-0.1 1q0 0.5 0.1 1q0.1 0.5 0.3 1c0.3 1 1 1.6 2.1 1.6c1.1 0 1.9-0.5 2.3-1.5q0.5-1 0.4-2.1zm17.9 0c0 3.9-2.5 6.4-6.3 6.4c-3.7 0-6.2-2.5-6.3-6.3c0-3.9 2.6-6.5 6.4-6.5c3.7 0.1 6.2 2.6 6.2 6.4zm-3.7 0q0-0.3 0-0.5q0-0.3 0-0.5q-0.1-0.3-0.2-0.5q0-0.3-0.1-0.5c-0.5-1-1.2-1.6-2.4-1.5c-1.1 0-1.8 0.6-2.1 1.6q-0.2 0.4-0.3 1q-0.1 0.5-0.1 1q0 0.5 0.1 1q0.1 0.5 0.3 1c0.4 0.9 1.1 1.5 2.1 1.5c1.1 0 1.8-0.4 2.3-1.4c0.3-0.7 0.5-1.4 0.4-2.2zm-3.1-32.3q0.3-0.4 0.7-0.8q0.3-0.3 0.7-0.5q0.5-0.3 0.9-0.5q0.5-0.2 0.9-0.3c1.3-0.2 2.2 0.3 2.4 1.4c0.2 1-0.3 1.8-1.6 2.2c-2.5 0.6-4 2.6-4 5.4c0 1.7 0 3.3 0 5c0 1.4-0.7 2.1-1.9 2.1c-1.1 0-1.7-0.8-1.8-2.1q0-5.8 0-11.7q0.1-2.2 1.7-2.3c1.1-0.1 1.7 0.5 2 2.1zm13.3 38.7c-2.7 0-3.7-1-3.8-3.5q0-2.6 0-5.2c0-0.5-0.1-0.8-0.7-0.9q-0.2-0.1-0.4-0.2q-0.2-0.1-0.3-0.3q-0.2-0.1-0.3-0.4q0-0.2 0-0.4q0-0.2 0-0.5q0.1-0.2 0.3-0.4q0.1-0.1 0.3-0.2q0.2-0.2 0.4-0.2c0.6-0.1 0.7-0.4 0.7-1q0-0.2 0-0.4q0-0.2 0-0.4q0-0.2 0-0.4q0-0.2 0-0.4c0.1-1.1 0.9-1.8 1.8-1.7c1 0 1.7 0.7 1.8 1.7q0 0.3 0 0.7c0 0.9-0.3 2 1.4 1.9c0.6 0 1 0.6 1 1.3c0 0.7-0.4 1.3-1.1 1.2c-1.3 0-1.4 0.8-1.3 1.8c0 1.2 0 2.4 0 3.6c0 1.3 0.2 1.4 1.4 1.2c0.4 0 0.7-0.1 1.1 0q0.1 0.1 0.3 0.2q0.1 0.1 0.3 0.3q0.1 0.1 0.2 0.3q0 0.1 0 0.3c0.1 0.7-0.2 1.2-0.7 1.5c-0.8 0.5-1.7 0.5-2.4 0.5zm-2.7-32.7v5.8c0 1.4-0.7 2.2-1.9 2.2c-1.1 0-1.7-0.7-1.7-2.1v-11.9c0-1.4 0.7-2.1 1.8-2.1c1.1 0 1.8 0.8 1.8 2.1q0 3 0 6zm-1.9-10.6q-0.4 0-0.7-0.1q-0.3-0.2-0.6-0.4q-0.2-0.3-0.4-0.6q-0.1-0.4-0.1-0.7c0.1-1 1-1.9 1.9-1.8q0.4 0 0.7 0.2q0.3 0.1 0.6 0.4q0.2 0.2 0.3 0.6q0.2 0.3 0.2 0.7c-0.1 1-0.8 1.7-1.9 1.7z" />
		</g>
	</g>
</svg>