<svg version="1.2" xmlns="http://www.w3.org/2000/svg" viewBox="0 0 150 80" width="150" height="80">
	<title>sql-svg</title>
	<defs>
		<clipPath clipPathUnits="userSpaceOnUse" id="cp1">
			<path d="m0 0h150v80h-150z" />
		</clipPath>
	</defs>
	<style>
		.s0 { fill: #6b8e23 } 
	</style>
	<g id="Clip-Path" clip-path="url(#cp1)">
		<g id="Layer">
			<path id="Layer" fill-rule="evenodd" class="s0" d="m150 46.7c-3.2 0-6.5 0-9.7 0c-0.9 0-1.2-0.2-1.2-1.1c0.1-4.2 0.1-8.4 0.1-12.5c0-0.5-0.3-1.3 0.8-1.3c1 0.1 0.6 0.8 0.6 1.2c0.1 3.8 0.1 7.5 0 11.3c0 0.9 0.3 1.2 1.2 1.1c2.7-0.1 5.5 0.2 8.2-0.1zm-108-1.8c1.6 0.3 3 0 4.4-0.2c1.8-0.3 2.7 0.8 2.1 2.5c-0.8 2.2-2.3 3.5-4.5 4.1c-1.5 0.4-2.9 0.6-4.4 0.4c-1-0.1-1.1 0.3-1.2 1.1q-0.1 0.8-0.2 1.6q-0.1 0.7-0.1 1.5q-0.1 0.7-0.3 1.5q-0.1 0.7-0.2 1.5c-0.6 4.1-2.5 6-6.7 6.8c-1.2 0.3-2.4 0.4-3.6 0c-2.3-0.5-3.8-1.9-4.3-4.3c-0.5-2.4-0.6-4.8-0.7-7.2c0-0.4 0.2-0.8-0.1-1.1q-4.5 1.5-8.6-1c-0.3-0.2-0.4 0-0.6 0.2c-2.1 1.3-3.6 1.2-5.3-0.8c-1.8-1.9-2.8-4.4-3.7-6.8q-0.7-1.7-1.3-3.5q-0.5-1.7-1-3.5q-0.5-1.8-0.9-3.6q-0.3-1.8-0.6-3.6q-0.1-0.9-0.2-1.8q0-0.9 0-1.7q0.1-0.9 0.2-1.8q0.2-0.8 0.4-1.6c1.2-4 3.9-6.1 8-6.8c3.2-0.5 6.3 0.1 9.4 0.9q0.2 0.1 0.5 0.1q0.2 0.1 0.5 0.1q0.2-0.1 0.4-0.1q0.3-0.1 0.5-0.2c2.3-1.2 4.9-1.3 7.4-0.9q0.4 0.1 0.8 0.1q0.4 0 0.8 0q0.4 0 0.7 0q0.4-0.1 0.8-0.2c3.2-0.8 6.5-0.9 9.7 0q0.8 0.2 1.5 0.5c6.8 3.2 7.4 5.9 6.5 11.6c-0.8 5.3-2.8 10.3-5.5 15c-0.2 0.4-0.4 0.7-0.6 1.2zm-18.4 6.1c0.1 3.2-0.1 6.2 0.5 9.2c0.6 2.8 2.3 4.4 4.7 4.4c4.7 0 7.2-2 7.7-6.1c0.3-2.3 0.6-4.7 0.9-7.1c0.1-0.7 0.2-1.1 1.1-0.9c1.8 0.2 3.5-0.1 5.2-0.7q0.5-0.1 0.9-0.3q0.5-0.3 0.9-0.5q0.4-0.3 0.7-0.6q0.4-0.4 0.7-0.7c0.4-0.4 0.5-0.9 0.3-1.4c-0.2-0.5-0.7-0.7-1.2-0.6q-0.7 0-1.4 0.1c-1.2 0.2-2.3 0.4-3.5 0.2c-0.9-0.1-0.9-0.4-0.5-1.1q0.6-0.8 1.1-1.7q0.5-0.9 1-1.9q0.5-0.9 0.9-1.8q0.4-1 0.8-2c1.5-3.8 2.7-7.6 2.6-11.8c0-1.9-0.6-3.5-2-4.8q-0.6-0.4-1.2-0.9q-0.6-0.4-1.2-0.8q-0.6-0.3-1.3-0.6q-0.7-0.3-1.4-0.5q-1.2-0.3-2.4-0.5q-1.2-0.1-2.4-0.1q-1.2 0-2.4 0.1q-1.2 0.2-2.4 0.5q-1.3 0.3-2.5 0.1c-2.7-0.3-5.5-0.4-7.9 1.2c-0.4 0.3-0.8 0.1-1.2 0c-2.6-0.8-5.3-1.4-8-1.3c-4.6 0.2-7.5 2.2-8.6 5.9q-0.1 0.4-0.2 0.9q-0.1 0.4-0.2 0.9q-0.1 0.4-0.1 0.9q-0.1 0.5-0.1 0.9c-0.1 5.2 1.4 10.1 2.9 14.9c0.9 2.7 1.9 5.3 3.7 7.6c1.8 2.3 3.8 2.3 5.8 0.1q1.7-1.9 3.3-3.8c0.3-0.2 0.4-0.5 0.9-0.3q1.1 0.4 2.2 0.7c-0.7 1.4-2 1.6-3.3 2c-0.9 0.2-2.2 0.2-2.2 1.6c0.1 1.4 1.4 1.6 2.4 1.9q0.1 0 0.1 0c2.3 0.5 4.3 0.1 6.3-1.3zm99.1-11.4c0-3.3 0.9-5.8 3.6-7.2c2.9-1.5 5.9-1.5 8.7 0.2c3.5 2.2 4.4 8.4 1.6 11.6c-0.7 0.8-0.7 1.2 0.1 1.7c0.3 0.2 0.6 0.4 0.9 0.7c0.3 0.2 0.4 0.4 0 0.7c-0.2 0.3-0.5 0.9-0.9 0.3c-1.2-1.5-2.6-1.2-4.3-0.8c-4.2 0.9-7.6-0.8-9.1-4.1q-0.1-0.4-0.3-0.7q-0.1-0.4-0.2-0.8q0-0.4-0.1-0.8q0-0.4 0-0.8zm1.5-0.6c-0.1 4.8 3.6 7.8 8.1 6.6c4.3-1.2 5.9-7.3 2.9-10.9c-1.6-2-4.5-2.7-7.1-1.7c-2.5 0.8-3.9 3-3.9 6zm-7.9 7.9q-0.4 0.1-0.8 0q-0.5 0-0.9-0.1q-0.5 0-0.9-0.2q-0.4-0.1-0.8-0.2q-0.3-0.1-0.6-0.3q-0.3-0.1-0.6-0.3q-0.2-0.2-0.4-0.5q-0.3-0.2-0.4-0.5q-0.2-0.2-0.4-0.5q-0.1-0.3-0.2-0.6q-0.1-0.3-0.1-0.6q-0.1-0.4-0.1-0.7c0-0.3 0-0.7 0.5-0.6c0.4 0 1-0.3 1.1 0.4c0.1 1.4 0.7 2.6 2.1 3.1q0.7 0.2 1.4 0.4q0.6 0.1 1.3 0.1q0.7 0 1.4-0.1q0.7-0.2 1.3-0.4c1.3-0.5 1.6-1.6 1.6-2.8c-0.1-1.1-0.7-1.9-1.8-2.2c-1.9-0.4-3.8-0.8-5.6-1.3c-2.4-0.6-3.4-2.4-2.7-4.9q0.1-0.3 0.2-0.6q0.2-0.4 0.5-0.6q0.2-0.3 0.5-0.5q0.3-0.2 0.7-0.4q0.8-0.3 1.6-0.4q0.9-0.2 1.8-0.2q0.9 0 1.7 0.1q0.9 0.2 1.7 0.5c1.5 0.5 2.3 1.7 2.5 3.2c0.1 0.3 0.2 0.8-0.4 0.7c-0.5 0-1 0.3-1.2-0.4c-0.6-2.2-1.3-2.7-3.5-2.9q-0.4 0-0.7 0q-0.4 0-0.7 0q-0.3 0-0.7 0.1q-0.3 0-0.6 0.1c-1.4 0.3-2 1.1-2 2.4c-0.1 1.4 0.4 2.1 1.8 2.5c1.9 0.5 3.8 0.8 5.6 1.4c2.5 0.7 3.4 2.5 2.7 5c-0.4 1.2-1.2 1.9-2.4 2.3c-1 0.5-2.2 0.6-3.5 0.5zm-60.1-13.3c1 0 2 0 3 0.1c1.9 0.1 3 1.3 3 3.3c0.1 2-1.1 3.4-2.9 3.6c-1.5 0.1-3.1 0-4.6 0c-0.6 0-0.8 0.2-0.8 0.9c0.1 1.2 0 2.4 0 3.6c0 0.5 0 0.8-0.7 0.8c-0.6 0-0.7-0.3-0.7-0.8q0-5.3 0-10.6c0-0.7 0.2-0.9 0.8-0.9c1 0 1.9 0 2.9 0zm0.4 6c0.8 0 1.5 0.1 2.3 0c1.4-0.1 2.1-1 2.1-2.4c0-1.5-0.7-2.4-2-2.6c-0.9-0.1-1.8 0-2.6 0c-2.5-0.1-2.5-0.1-2.5 2.4c0 2.7 0 2.7 2.7 2.6zm35.9-0.7q0.1-0.3 0.1-0.6c0-0.5 0.3-0.5 0.7-0.5c0.4 0 0.4 0.3 0.4 0.6c0 2.5 0 5.1-0.1 7.7c-0.1 1.8-1 2.7-2.9 3.1q-0.4 0-0.8 0.1q-0.4 0-0.8 0q-0.4 0-0.8-0.1q-0.4 0-0.8-0.2q-0.3 0-0.6-0.2q-0.3-0.1-0.6-0.3q-0.2-0.2-0.4-0.5q-0.1-0.3-0.2-0.6c-0.1-0.2-0.4-0.6 0-0.7c0.3-0.1 0.7-0.2 1 0.3c0.8 1.5 2.7 1.9 4.4 1.2c1.3-0.5 1.7-1.7 1.4-3.7c-2.2 1.6-5.1 1.6-6.5 0c-1.2-1.4-1.2-4.5 0.2-5.8c1.5-1.6 4.3-1.5 6.3 0.2zm0.1 2.7c0-2-1.2-3.2-3.1-3.2c-2.1 0-3.3 1.3-3.3 3.3c0 2.1 1.2 3.2 3.3 3.2c1.9 0 3.1-1.2 3.1-3.3zm12.2 0.4c-1 0-1.9 0.1-2.9 0c-0.9-0.1-1 0.4-0.8 1.1q0.1 0.5 0.4 0.8q0.2 0.4 0.5 0.7q0.4 0.3 0.8 0.5q0.4 0.1 0.9 0.2c1.2 0.1 2.4 0 3.2-1.2q0.1-0.2 0.2-0.5c0.2-0.5 0.7-0.5 1-0.3c0.4 0.2 0.1 0.6-0.1 0.8c-0.8 1.7-3 2.5-5.2 1.8c-2-0.5-3.1-2.3-2.9-4.6c0.2-2.1 1.6-3.5 3.6-3.7c2.8-0.3 4.6 1 5 3.4c0.1 0.7 0 1.2-0.9 1.1c-1-0.1-1.9-0.1-2.8-0.1zm-0.7-0.7c0.9 0 1.8 0 2.6 0c0.6 0 0.8 0 0.6-0.7q0-0.3-0.2-0.5q-0.1-0.2-0.2-0.4q-0.2-0.2-0.4-0.4q-0.1-0.2-0.4-0.4q-0.2-0.1-0.4-0.2q-0.2-0.1-0.5-0.2q-0.2-0.1-0.5-0.1q-0.2-0.1-0.5-0.1c-1.6 0-2.8 1-3.1 2.3c-0.1 0.5 0 0.8 0.6 0.7c0.8 0 1.6 0 2.4 0zm-28.2-3.7c1.4 0 2.7 0 3.4 1.3c0.2 0.4 0.7 1 0 1.3c-0.6 0.3-0.7-0.2-0.9-0.7c-0.6-1.4-3.8-1.6-4.7-0.5c-0.6 0.8-0.2 1.7 0.8 2c1 0.2 2.1 0.3 3.1 0.5c1.6 0.3 2.3 0.9 2.3 2.1q0.1 1.9-2.2 2.4q-0.5 0.1-0.9 0.1q-0.5 0-0.9 0q-0.4 0-0.9 0q-0.4-0.1-0.9-0.2c-0.9-0.3-1.6-0.8-1.8-1.9c-0.1-0.2-0.3-0.6 0.2-0.6c0.3 0 0.6-0.2 0.8 0.3q0.2 0.2 0.4 0.5q0.2 0.2 0.5 0.5q0.2 0.2 0.5 0.3q0.3 0.2 0.7 0.3q0.3 0.1 0.6 0.1q0.3 0 0.7 0q0.3 0 0.6-0.1q0.4-0.1 0.7-0.2c0.6-0.3 0.9-0.8 0.8-1.5c-0.1-0.7-0.5-1-1.1-1.1c-1.1-0.2-2.2-0.4-3.3-0.6c-1.4-0.2-2-0.9-2-2c0-1.2 0.7-2 2.1-2.2c0.5-0.1 1-0.1 1.4-0.1zm-9 0c2.8 0 4.4 1.5 4.4 4.3c-0.1 2.7-1.7 4.2-4.4 4.2c-2.7 0-4.4-1.6-4.3-4.3c0-2.7 1.6-4.2 4.3-4.2zm-3.2 4.3c0 2.2 1.1 3.4 3.2 3.4c2.2 0 3.3-1.2 3.3-3.5c-0.1-2.3-1.2-3.4-3.3-3.4c-2 0-3.3 1.3-3.2 3.5z" />
			<path id="Layer" class="s0" d="m84 46c-1.4 0-1.8-0.4-1.9-1.8q0-2.3 0-4.5c0-0.6 0-1.1-0.8-1c-0.2 0-0.6 0-0.6-0.4c0-0.4 0.4-0.4 0.6-0.4c0.7 0.1 0.9-0.2 0.8-0.8q0-0.1 0-0.2q0-0.1 0-0.2q0-0.1 0-0.2q0-0.1 0-0.2c0.1-0.4-0.4-1.1 0.5-1.1c0.9 0 0.5 0.7 0.5 1.1c0 1-0.1 2 1.4 1.6q0.1 0 0.2 0q0.1 0 0.1 0.1q0.1 0 0.2 0.1q0 0.1 0 0.2q0 0.1 0 0.2q-0.1 0-0.2 0.1q0 0.1-0.1 0.1q-0.1 0-0.2 0c-1.5-0.4-1.4 0.6-1.4 1.6q0.1 1.9 0 3.8c0 0.6 0.3 1 1 1.1c0.3 0.1 1-0.3 0.9 0.5c-0.1 0.6-0.7 0.3-1 0.3zm12.5-7.1c0.7-1.1 1.6-1.3 2.7-1.2c0.3 0 0.6 0 0.6 0.5c0 0.4-0.2 0.4-0.6 0.5c-2.1 0.1-2.7 0.8-2.8 2.9c-0.1 1.2-0.1 2.4-0.1 3.6c0 0.4 0.1 0.8-0.5 0.8c-0.6 0-0.5-0.4-0.5-0.8q-0.1-3.1 0-6.3c0-0.3-0.3-0.8 0.3-1c0.8-0.2 0.7 0.5 0.9 1zm-74.4 6.5q0.3-1.6 1.1-3.1c1.6-3.4 1.4-6.8 0.5-10.3c-0.4-1.7-1.6-2.5-3.3-2.6c-1.4-0.1-2.7 0.3-3.9 0.8c-0.7 0.3-0.8 0.2-0.7-0.5c0.3-2.6 1-5.2 2.8-7.3c2.4-2.9 5.7-3.3 9.1-2.7c5.1 0.9 8.4 4.1 10.6 8.6c0.4 0.7 0.1 0.9-0.6 0.8q-0.2 0-0.4 0q-0.2 0-0.4 0q-0.1 0-0.3 0.1q-0.2 0-0.4 0c-2.4 0.3-3.6 1.8-3.5 4.2q0.1 0.5 0.2 1.1q0.1 0.5 0.2 1.1q0.2 0.5 0.4 1q0.2 0.5 0.4 1c1.2 2.5 2.4 5 4 7.3c0.2 0.3 0.6 0.6 0 0.8c-1.3 0.6-1.5 1.7-1.6 3c-0.3 3.4-0.8 6.7-1.3 10.1c-0.5 3.4-3.2 4.5-6.3 4.4c-1.8 0-3-1.6-3.3-3.8c-0.5-3.3-0.4-6.7-0.4-10.1c0.1-2.4-0.5-3.2-2.9-3.9z" />
			<path id="Layer" class="s0" d="m2.9 28.7c0-0.9 0-1.7 0.2-2.5c0.7-4.1 3.3-6.4 7.5-6.6q0.9 0 1.7 0q0.9 0.1 1.7 0.2q0.8 0.1 1.7 0.3q0.8 0.2 1.6 0.4c0.5 0.1 0.9 0.2 0.4 0.9c-2.8 3.3-3.5 7.2-3.5 11.3c0.1 1.8 0.2 3.6-0.1 5.4c-0.3 2.5 0.1 4.8 2 6.6c0.3 0.4 0.3 0.6 0 0.9c-1.2 1.3-2.3 2.7-3.5 4c-1.1 1.2-2.1 1.1-3.2-0.1c-1.1-1.2-1.8-2.6-2.4-4.1c-2-4.6-3.2-9.4-4-14.3c-0.1-0.8-0.1-1.6-0.1-2.4zm36.6 14.5c0.7-1.8 0.7-3.6 0.5-5.5q-0.1-0.6-0.2-1.2q0-0.6 0-1.2q0-0.7 0-1.3q0.1-0.6 0.2-1.2c0.5-2.4 0-4.6-1.3-6.7c-1.6-2.7-3.7-4.9-6.5-6.4c-0.1-0.1-0.4-0.1-0.4-0.3c4.3-1.4 10.1 0.3 12.9 3.7c0.7 0.7 0.8 1.6 0.9 2.5c0.1 2.7-0.5 5.2-1.3 7.8q-0.3 1.3-0.8 2.6q-0.5 1.3-1.1 2.6q-0.6 1.3-1.2 2.5q-0.7 1.2-1.4 2.4c0 0-0.3-0.3-0.3-0.3z" />
			<path id="Layer" fill-rule="evenodd" class="s0" d="m15.7 34.7q0 0 0-0.1q0 0 0-0.1q0 0 0-0.1q0 0 0-0.1c0.2-0.8-0.6-1.8 0.5-2.4c1.6-0.8 3.3-1.5 5.2-0.8c0.6 0.2 0.9 0.8 1.1 1.5c0.7 3.3 0.8 6.5-0.8 9.6q-0.1 0.3-0.2 0.6q-0.2 0.3-0.3 0.5q-0.1 0.3-0.2 0.6q-0.1 0.3-0.1 0.6c-0.2 0.7-0.6 0.8-1.3 0.7c-2.6-0.6-4.3-3.1-4.1-6q0.1-2.2 0.3-4.5zm6.1-2.3c-0.2-0.7-0.8-0.8-1.4-0.8c-0.4 0-1.1-0.2-1.1 0.5c0 0.6 0.6 1 1.2 1.1q0.2 0 0.4 0q0.2-0.1 0.4-0.2q0.2-0.1 0.3-0.3q0.1-0.1 0.2-0.3zm16.3 10.3c-1.5-2.7-3.1-5.2-3.8-8.1c-0.8-3.5 0.8-4.3 4-4c0.5 0 0.5 0.3 0.5 0.6c-0.7 2.9-0.3 5.7-0.1 8.5c0 1 0 2-0.6 3zm-1.6-11.5c-0.5 0.1-1.2 0-1.3 0.7c0 0.5 0.6 0.7 1.1 0.7c0.6 0 1.1-0.3 1.1-0.9c0-0.6-0.5-0.5-0.9-0.5zm-20.1 19.3q0.1-0.1 0.2-0.1q0.1-0.1 0.3-0.1q0.1 0 0.2-0.1q0.1 0 0.3 0c1.7-0.3 3.1-1 4.1-2.5c0.4-0.5 0.8-1 1.5-0.5c0.6 0.6 0.8 1.2 0.3 1.9c-1.4 2-4.3 2.6-6.9 1.4zm28.9-3.3c-2.1 1.7-4.3 2-6.6 1.9c-0.6 0-1.2-0.1-1-1c0.2-0.9 0.8-1.5 1.5-1.2c1.9 0.9 3.9 0.6 6.1 0.3zm-5.5-3.7q0 0 0 0zm-0.3 0.4l-0.2-0.2q0 0 0-0.1q0.1-0.1 0.1-0.1q0-0.1 0.1-0.1q0-0.1 0-0.2c0 0 0.3 0.3 0.3 0.3zm0 0l-0.3 0.3c-0.2-0.2-0.1-0.4 0-0.5z" />
		</g>
	</g>
</svg>